<svg viewBox="-800 -800 800 800" xmlns="http://www.w3.org/2000/svg"><circle cx="15.721718" cy="45.829605" r="5"/><circle cx="11.586876" cy="39.916595" r="5"/><circle cx="4.592186" cy="43.666336" r="5"/><circle cx="0.396946" cy="35.534698" r="5"/><circle cx="-7.103088" cy="38.016983" r="5"/><circle cx="-10.492134" cy="28.332886" r="5"/><circle cx="7.965282" cy="33.112518" r="5"/><circle cx="-2.605164" cy="27.184265" r="5"/><circle cx="-11.845573" cy="20.197495" r="5"/><circle cx="20.015038" cy="50.384857" r="5"/><circle cx="9.236347" cy="50.225906" r="5"/><circle cx="-2.311295" cy="47.467422" r="5"/><circle cx="29.072418" cy="57.856766" r="5"/><circle cx="24.305603" cy="53.698059" r="5"/><circle cx="18.024788" cy="58.023804" r="5"/><circle cx="13.774620" cy="54.849228" r="5"/><circle cx="7.637459" cy="59.325043" r="5"/><circle cx="2.850773" cy="54.650497" r="5"/><circle cx="-24.523462" cy="-240.254181" r="5"/><circle cx="-24.478224" cy="-247.926605" r="5"/><circle cx="-18.415016" cy="-240.254181" r="5"/><circle cx="-18.354662" cy="-247.926605" r="5"/><circle cx="-12.141106" cy="-240.254181" r="5"/><circle cx="-12.095867" cy="-247.926605" r="5"/><circle cx="-5.754250" cy="-240.254379" r="5"/><circle cx="-5.754250" cy="-247.926727" r="5"/><circle cx="6.571701" cy="-240.254379" r="5"/><circle cx="6.571701" cy="-247.926727" r="5"/><circle cx="18.906799" cy="-240.254379" r="5"/><circle cx="18.906799" cy="-247.926727" r="5"/><circle cx="-24.432985" cy="-255.599014" r="5"/><circle cx="-18.294304" cy="-255.599014" r="5"/><circle cx="-12.050632" cy="-255.599014" r="5"/><circle cx="-5.754250" cy="-255.599014" r="5"/><circle cx="6.571712" cy="-255.599091" r="5"/><circle cx="18.906799" cy="-255.599014" r="5"/><circle cx="-18.475382" cy="-232.581696" r="5"/><circle cx="-12.186344" cy="-232.581848" r="5"/><circle cx="5.320774" cy="26.082474" r="5"/><circle cx="-3.980743" cy="19.782455" r="5"/><circle cx="-12.305149" cy="13.030785" r="5"/><circle cx="3.905926" cy="19.396835" r="5"/><circle cx="-4.643066" cy="13.220314" r="5"/><circle cx="43.292244" cy="124.863098" r="5"/><circle cx="45.765129" cy="114.710693" r="5"/><circle cx="38.132431" cy="113.181915" r="5"/><circle cx="38.857864" cy="103.922775" r="5"/><circle cx="31.099228" cy="103.621643" r="5"/><circle cx="30.498489" cy="95.564377" r="5"/><circle cx="46.634903" cy="104.248428" r="5"/><circle cx="38.184456" cy="94.617004" r="5"/><circle cx="28.746895" cy="87.745972" r="5"/><circle cx="39.278679" cy="134.459274" r="5"/><circle cx="35.984093" cy="122.152145" r="5"/><circle cx="30.516510" cy="111.681854" r="5"/><circle cx="27.027267" cy="151.023209" r="5"/><circle cx="33.812012" cy="143.250122" r="5"/><circle cx="27.669174" cy="138.388657" r="5"/><circle cx="32.468277" cy="130.622864" r="5"/><circle cx="25.666100" cy="126.827164" r="5"/><circle cx="28.689613" cy="119.476273" r="5"/><circle cx="39.679169" cy="73.426376" r="5"/><circle cx="34.521790" cy="64.632507" r="5"/><circle cx="27.854034" cy="68.574921" r="5"/><circle cx="22.636604" cy="62.040924" r="5"/><circle cx="16.312485" cy="66.322144" r="5"/><circle cx="11.892998" cy="62.430099" r="5"/><circle cx="43.550438" cy="83.284363" r="5"/><circle cx="32.668724" cy="76.747849" r="5"/><circle cx="21.209290" cy="72.549362" r="5"/><circle cx="45.890930" cy="93.689804" r="5"/><circle cx="36.141396" cy="85.511871" r="5"/><circle cx="25.659401" cy="80.070602" r="5"/><circle cx="-67.921837" cy="134.136780" r="5"/><circle cx="-74.339836" cy="138.487503" r="5"/><circle cx="-61.776497" cy="141.664780" r="5"/><circle cx="-67.386597" cy="147.055222" r="5"/><circle cx="-54.632248" cy="148.180618" r="5"/><circle cx="-59.325909" cy="154.416519" r="5"/><circle cx="-46.745628" cy="153.435593" r="5"/><circle cx="-50.433006" cy="160.316422" r="5"/><circle cx="-38.193352" cy="157.393936" r="5"/><circle cx="-40.778572" cy="164.770218" r="5"/><circle cx="-29.161057" cy="159.979446" r="5"/><circle cx="-30.574629" cy="167.686996" r="5"/><circle cx="-19.907551" cy="161.098862" r="5"/><circle cx="-20.116077" cy="168.945816" r="5"/><circle cx="-10.675247" cy="160.733292" r="5"/><circle cx="-9.674660" cy="168.526382" r="5"/><circle cx="-1.684704" cy="158.897598" r="5"/><circle cx="0.502048" cy="166.448196" r="5"/><circle cx="6.846775" cy="155.647141" r="5"/><circle cx="-5.754250" cy="-232.582031" r="5"/><circle cx="6.571690" cy="-232.582092" r="5"/><circle cx="18.906799" cy="-232.582031" r="5"/><circle cx="-2.852291" cy="-36.623428" r="5"/><circle cx="3.022556" cy="13.608459" r="5"/><circle cx="-5.409485" cy="-36.587982" r="5"/><circle cx="-4.649769" cy="13.608459" r="5"/><circle cx="-7.966686" cy="-36.552467" r="5"/><circle cx="-10.523880" cy="-36.517029" r="5"/><circle cx="2.262100" cy="-36.694321" r="5"/><circle cx="4.819294" cy="-36.729767" r="5"/><circle cx="10.694889" cy="13.608459" r="5"/><circle cx="7.376492" cy="-36.765282" r="5"/><circle cx="9.933689" cy="-36.800720" r="5"/><circle cx="-31.067627" cy="-255.639786" r="5"/><circle cx="-30.415304" cy="-255.599014" r="5"/><circle cx="-31.143431" cy="-247.953568" r="5"/><circle cx="-30.415304" cy="-247.926727" r="5"/><circle cx="-0.295101" cy="-36.658875" r="5"/><circle cx="7.376339" cy="-36.953888" r="5"/><circle cx="4.819141" cy="-36.918442" r="5"/><circle cx="10.694794" cy="13.337700" r="5"/><circle cx="2.261997" cy="-36.882988" r="5"/><circle cx="3.029739" cy="13.245903" r="5"/><circle cx="-0.295258" cy="-36.847549" r="5"/><circle cx="-79.388519" cy="129.719879" r="5"/><circle cx="-72.409599" cy="126.308563" r="5"/><circle cx="-7.966843" cy="-36.741142" r="5"/><circle cx="-10.524036" cy="-36.705696" r="5"/><circle cx="-13.081158" cy="-36.670250" r="5"/><circle cx="-13.081081" cy="-36.481575" r="5"/><circle cx="-12.322098" cy="13.608459" r="5"/><circle cx="-5.409592" cy="-36.776588" r="5"/><circle cx="-2.852451" cy="-36.812035" r="5"/><circle cx="-12.228214" cy="-255.871017" r="5"/><circle cx="-5.869602" cy="-248.251602" r="5"/><circle cx="-5.807777" cy="-255.950195" r="5"/><circle cx="6.521500" cy="-248.329727" r="5"/><circle cx="6.558792" cy="-256.027649" r="5"/><circle cx="6.471424" cy="-240.656982" r="5"/><circle cx="-12.366718" cy="-248.171234" r="5"/><circle cx="-5.942421" cy="-240.578598" r="5"/><circle cx="6.433979" cy="-232.958252" r="5"/><circle cx="-56.202286" cy="136.237946" r="5"/><circle cx="-61.505096" cy="129.775452" r="5"/><circle cx="-65.389099" cy="122.937042" r="5"/><circle cx="-74.909599" cy="118.192383" r="5"/><circle cx="-67.730507" cy="115.314789" r="5"/><circle cx="-77.065796" cy="110.316299" r="5"/><circle cx="-69.721924" cy="108.052216" r="5"/><circle cx="-78.255661" cy="103.501175" r="5"/><circle cx="-70.757248" cy="101.953568" r="5"/><circle cx="-78.919220" cy="97.537460" r="5"/><circle cx="-71.317932" cy="96.514908" r="5"/><circle cx="-79.652245" cy="91.859955" r="5"/><circle cx="-72.031837" cy="90.919144" r="5"/><circle cx="-80.468712" cy="86.195480" r="5"/><circle cx="-72.865799" cy="85.154724" r="5"/><circle cx="-49.980381" cy="141.918030" r="5"/><circle cx="-43.096416" cy="146.542984" r="5"/><circle cx="-35.650734" cy="150.016068" r="5"/><circle cx="-27.794157" cy="152.280624" r="5"/><circle cx="-19.743250" cy="153.270981" r="5"/><circle cx="-11.714813" cy="152.968857" r="5"/><circle cx="-3.903847" cy="151.383469" r="5"/><circle cx="3.500881" cy="148.564468" r="5"/><circle cx="10.314922" cy="144.581680" r="5"/><circle cx="14.705837" cy="151.060165" r="5"/><circle cx="16.373047" cy="139.542618" r="5"/><circle cx="-31.285780" cy="-232.582031" r="5"/><circle cx="-31.230402" cy="-240.280884" r="5"/><circle cx="-30.415304" cy="-240.254379" r="5"/><circle cx="-25.358841" cy="-232.635223" r="5"/><circle cx="-25.227795" cy="-240.334610" r="5"/><circle cx="-25.092678" cy="-248.007889" r="5"/><circle cx="-18.798952" cy="-248.089828" r="5"/><circle cx="-18.951574" cy="-240.416031" r="5"/><circle cx="-12.505650" cy="-240.497375" r="5"/><circle cx="-12.641159" cy="-232.797729" r="5"/><circle cx="-6.024899" cy="-232.879089" r="5"/><circle cx="-18.646193" cy="-255.790070" r="5"/><circle cx="-24.957083" cy="-255.708054" r="5"/><circle cx="-19.100542" cy="-232.716187" r="5"/><circle cx="2.320335" cy="55.779449" r="5"/><circle cx="-2.729382" cy="48.419739" r="5"/><circle cx="8.647861" cy="51.171844" r="5"/><circle cx="4.162239" cy="44.494217" r="5"/><circle cx="14.975388" cy="46.564163" r="5"/><circle cx="11.053856" cy="40.568710" r="5"/><circle cx="21.302940" cy="41.956497" r="5"/><circle cx="17.945480" cy="36.643188" r="5"/><circle cx="-7.380692" cy="38.881302" r="5"/><circle cx="0.128906" cy="36.301224" r="5"/><circle cx="7.638504" cy="33.721085" r="5"/><circle cx="15.148094" cy="31.141022" r="5"/><circle cx="7.040604" cy="60.742050" r="5"/><circle cx="13.057487" cy="56.003113" r="5"/><circle cx="19.074371" cy="51.264175" r="5"/><circle cx="25.091270" cy="46.525238" r="5"/><circle cx="15.086723" cy="67.540741" r="5"/><circle cx="11.048866" cy="63.926208" r="5"/><circle cx="21.433083" cy="63.229324" r="5"/><circle cx="17.122330" cy="59.334991" r="5"/><circle cx="27.779388" cy="58.917847" r="5"/><circle cx="23.195793" cy="54.743820" r="5"/><circle cx="34.125702" cy="54.606369" r="5"/><circle cx="29.269318" cy="50.152588" r="5"/><circle cx="48.936676" cy="127.925278" r="5"/><circle cx="44.424881" cy="138.510727" r="5"/><circle cx="41.615166" cy="125.261963" r="5"/><circle cx="37.592842" cy="134.722061" r="5"/><circle cx="34.293724" cy="122.598618" r="5"/><circle cx="30.760750" cy="130.933456" r="5"/><circle cx="26.972282" cy="119.935226" r="5"/><circle cx="23.928719" cy="127.144806" r="5"/><circle cx="38.313148" cy="148.182663" r="5"/><circle cx="32.140717" cy="143.366180" r="5"/><circle cx="25.968285" cy="138.549728" r="5"/><circle cx="19.795914" cy="133.733307" r="5"/><circle cx="44.114548" cy="115.231537" r="5"/><circle cx="36.476395" cy="113.747070" r="5"/><circle cx="-10.648712" cy="29.142090" r="5"/><circle cx="-2.745255" cy="27.920212" r="5"/><circle cx="5.158192" cy="26.698334" r="5"/><circle cx="13.061638" cy="25.476471" r="5"/><circle cx="-11.919769" cy="20.979340" r="5"/><circle cx="-4.038712" cy="20.516373" r="5"/><circle cx="3.842350" cy="20.053345" r="5"/><circle cx="11.723408" cy="19.590302" r="5"/><circle cx="28.838242" cy="112.262543" r="5"/><circle cx="29.470810" cy="104.307281" r="5"/><circle cx="37.246933" cy="104.592499" r="5"/><circle cx="45.023064" cy="104.877777" r="5"/><circle cx="51.752701" cy="116.716080" r="5"/><circle cx="52.799187" cy="105.162994" r="5"/><circle cx="-89.234215" cy="123.944778" r="5"/><circle cx="-82.060181" cy="121.068527" r="5"/><circle cx="-91.739044" cy="114.838211" r="5"/><circle cx="-84.402573" cy="112.558655" r="5"/><circle cx="-93.253876" cy="106.590897" r="5"/><circle cx="-85.757828" cy="105.031387" r="5"/><circle cx="-94.124756" cy="99.584137" r="5"/><circle cx="-86.522636" cy="98.564545" r="5"/><circle cx="-94.893143" cy="93.741043" r="5"/><circle cx="-87.271988" cy="92.805634" r="5"/><circle cx="-95.671951" cy="88.280090" r="5"/><circle cx="-88.069885" cy="87.238159" r="5"/><circle cx="-86.420692" cy="133.057388" r="5"/><circle cx="-80.760925" cy="142.839569" r="5"/><circle cx="-72.962791" cy="152.480148" r="5"/><circle cx="-63.979012" cy="160.679489" r="5"/><circle cx="-54.084427" cy="167.210068" r="5"/><circle cx="-43.321335" cy="172.151688" r="5"/><circle cx="-31.938622" cy="175.390915" r="5"/><circle cx="-20.275032" cy="176.779099" r="5"/><circle cx="-8.627407" cy="176.295822" r="5"/><circle cx="2.731236" cy="173.966019" r="5"/><circle cx="10.167976" cy="162.772079" r="5"/><circle cx="13.525764" cy="169.856491" r="5"/><circle cx="19.081009" cy="157.583969" r="5"/><circle cx="23.484947" cy="164.061691" r="5"/><circle cx="32.371147" cy="156.736893" r="5"/><circle cx="39.966492" cy="148.060989" r="5"/><circle cx="46.092499" cy="138.246155" r="5"/><circle cx="50.596527" cy="127.528000" r="5"/><circle cx="53.388359" cy="116.198380" r="5"/><circle cx="54.398407" cy="104.538239" r="5"/><circle cx="53.580048" cy="92.731308" r="5"/><circle cx="50.943092" cy="81.032501" r="5"/><circle cx="46.682060" cy="70.089050" r="5"/><circle cx="41.180206" cy="60.680283" r="5"/><circle cx="35.453911" cy="53.650299" r="5"/><circle cx="30.466400" cy="49.338837" r="5"/><circle cx="26.111649" cy="45.889633" r="5"/><circle cx="22.087883" cy="41.423431" r="5"/><circle cx="18.481651" cy="36.172394" r="5"/><circle cx="15.449883" cy="30.682190" r="5"/><circle cx="13.193947" cy="24.947617" r="5"/><circle cx="11.764965" cy="18.986069" r="5"/><circle cx="24.191048" cy="80.935760" r="5"/><circle cx="19.782967" cy="73.498199" r="5"/><circle cx="31.202347" cy="77.615082" r="5"/><circle cx="26.443687" cy="69.545044" r="5"/><circle cx="38.213646" cy="74.294388" r="5"/><circle cx="33.104408" cy="65.591858" r="5"/><circle cx="45.224953" cy="70.973679" r="5"/><circle cx="39.765121" cy="61.638718" r="5"/><circle cx="27.238884" cy="88.586548" r="5"/><circle cx="34.640427" cy="86.335037" r="5"/><circle cx="42.041901" cy="84.083496" r="5"/><circle cx="49.443443" cy="81.831985" r="5"/><circle cx="28.928596" cy="96.343018" r="5"/><circle cx="36.628502" cy="95.378204" r="5"/><circle cx="44.328407" cy="94.413467" r="5"/><circle cx="52.028381" cy="93.448715" r="5"/><circle cx="30.758255" cy="156.710983" r="5"/><circle cx="25.398117" cy="150.987564" r="5"/><circle cx="20.038055" cy="145.264236" r="5"/><circle cx="14.678017" cy="139.540894" r="5"/><circle cx="-89.288879" cy="123.503235" r="5"/><circle cx="-91.799026" cy="114.576859" r="5"/><circle cx="-82.114243" cy="120.687531" r="5"/><circle cx="-84.451859" cy="112.366974" r="5"/><circle cx="-74.939606" cy="117.871918" r="5"/><circle cx="-77.104706" cy="110.157013" r="5"/><circle cx="-67.764969" cy="115.056213" r="5"/><circle cx="-69.757545" cy="107.947052" r="5"/><circle cx="-93.376167" cy="106.573471" r="5"/><circle cx="-85.768616" cy="105.042435" r="5"/><circle cx="-78.266296" cy="103.511414" r="5"/><circle cx="-70.763962" cy="101.980392" r="5"/><circle cx="-86.319321" cy="132.794678" r="5"/><circle cx="-79.321182" cy="129.424332" r="5"/><circle cx="-72.323059" cy="126.054062" r="5"/><circle cx="-65.324928" cy="122.683716" r="5"/><circle cx="-72.936218" cy="152.177536" r="5"/><circle cx="-80.597458" cy="142.680481" r="5"/><circle cx="-67.327438" cy="146.785934" r="5"/><circle cx="-74.174736" cy="138.337372" r="5"/><circle cx="-61.718658" cy="141.394348" r="5"/><circle cx="-67.752007" cy="133.994263" r="5"/><circle cx="-56.109871" cy="136.002716" r="5"/><circle cx="-61.329281" cy="129.651215" r="5"/><circle cx="21.703629" cy="145.259964" r="5"/><circle cx="21.527649" cy="133.571396" r="5"/><circle cx="-94.118492" cy="99.654236" r="5"/><circle cx="-86.516525" cy="98.617554" r="5"/><circle cx="-78.914558" cy="97.580795" r="5"/><circle cx="-71.312592" cy="96.544113" r="5"/><circle cx="-94.889297" cy="93.748062" r="5"/><circle cx="-87.269493" cy="92.802872" r="5"/><circle cx="-79.649689" cy="91.857651" r="5"/><circle cx="-72.029884" cy="90.912445" r="5"/><circle cx="1.419331" cy="173.531906" r="5"/><circle cx="-9.782391" cy="175.763596" r="5"/><circle cx="-0.811867" cy="165.997269" r="5"/><circle cx="-10.824890" cy="167.978134" r="5"/><circle cx="-3.043083" cy="158.462570" r="5"/><circle cx="-11.867386" cy="160.192642" r="5"/><circle cx="-5.274288" cy="150.927933" r="5"/><circle cx="-9.092091" cy="151.667557" r="5"/><circle cx="-21.248335" cy="176.179581" r="5"/><circle cx="-21.076979" cy="168.333176" r="5"/><circle cx="-20.905626" cy="160.486679" r="5"/><circle cx="-12.909893" cy="152.407120" r="5"/><circle cx="-20.734261" cy="152.640244" r="5"/><circle cx="12.083126" cy="169.545059" r="5"/><circle cx="8.717636" cy="162.444687" r="5"/><circle cx="5.352142" cy="155.344376" r="5"/><circle cx="1.986656" cy="148.244095" r="5"/><circle cx="21.941696" cy="163.888870" r="5"/><circle cx="17.524994" cy="157.397934" r="5"/><circle cx="13.108341" cy="150.907028" r="5"/><circle cx="8.691666" cy="144.416153" r="5"/><circle cx="-54.467052" cy="166.635513" r="5"/><circle cx="-64.169159" cy="160.205154" r="5"/><circle cx="-50.792835" cy="159.748123" r="5"/><circle cx="-59.481445" cy="153.964981" r="5"/><circle cx="-47.118614" cy="152.860672" r="5"/><circle cx="-54.793728" cy="147.724747" r="5"/><circle cx="-43.444397" cy="145.973343" r="5"/><circle cx="-50.106007" cy="141.484589" r="5"/><circle cx="-43.888916" cy="171.530838" r="5"/><circle cx="-41.326279" cy="164.147293" r="5"/><circle cx="-38.763645" cy="156.763779" r="5"/><circle cx="-36.201004" cy="149.380264" r="5"/><circle cx="-32.709763" cy="174.761215" r="5"/><circle cx="-31.326994" cy="167.049088" r="5"/><circle cx="-29.944225" cy="159.336960" r="5"/><circle cx="-28.561457" cy="151.624893" r="5"/><circle cx="-72.867653" cy="85.141159" r="5"/><circle cx="-80.469620" cy="86.177856" r="5"/><circle cx="-88.071579" cy="87.214615" r="5"/><circle cx="-95.673546" cy="88.251282" r="5"/><circle cx="9.933537" cy="-36.989326" r="5"/><circle cx="-24.568701" cy="-232.581848" r="5"/><circle cx="-30.415304" cy="-232.582031" r="5"/><circle cx="-150.229126" cy="-333.916473" r="5"/><circle cx="-143.103790" cy="-335.068604" r="5"/><circle cx="-150.075821" cy="-329.678223" r="5"/><circle cx="-142.357635" cy="-331.053955" r="5"/><circle cx="-149.962646" cy="-325.667847" r="5"/><circle cx="-141.694550" cy="-327.338959" r="5"/><circle cx="-149.902283" cy="-321.964478" r="5"/><circle cx="-141.141479" cy="-324.022522" r="5"/><circle cx="-141.547241" cy="-321.788177" r="5"/><circle cx="-133.642029" cy="-323.806305" r="5"/><circle cx="-158.995758" cy="-328.455750" r="5"/><circle cx="-158.479858" cy="-332.881653" r="5"/><circle cx="-150.408661" cy="-338.298828" r="5"/><circle cx="-158.295120" cy="-334.466614" r="5"/><circle cx="-157.955536" cy="-337.379883" r="5"/><circle cx="-12.790966" cy="12.911369" r="5"/><circle cx="-12.881161" cy="10.979782" r="5"/><circle cx="-9.474297" cy="10.444740" r="5"/><circle cx="-12.958115" cy="9.483276" r="5"/><circle cx="-12.965942" cy="8.136787" r="5"/><circle cx="-75.728104" cy="65.041229" r="5"/><circle cx="-74.441391" cy="75.059326" r="5"/><circle cx="-74.474930" cy="76.848343" r="5"/><circle cx="-74.470573" cy="76.711548" r="5"/><circle cx="-150.599091" cy="-342.738556" r="5"/><circle cx="-157.428833" cy="-341.898743" r="5"/><circle cx="-150.783630" cy="-347.147827" r="5"/><circle cx="-156.905701" cy="-346.386230" r="5"/><circle cx="-152.493713" cy="-348.207642" r="5"/><circle cx="-143.904114" cy="-339.276215" r="5"/><circle cx="-144.726349" cy="-343.565674" r="5"/><circle cx="-145.535431" cy="-347.824921" r="5"/><circle cx="-147.559937" cy="-348.686890" r="5"/><circle cx="-8.546288" cy="32.968826" r="5"/><circle cx="-16.452236" cy="22.877914" r="5"/><circle cx="-11.874866" cy="20.589432" r="5"/><circle cx="-16.378349" cy="15.149864" r="5"/><circle cx="-13.091045" cy="15.932907" r="5"/><circle cx="-101.520004" cy="44.696503" r="5"/><circle cx="-106.169098" cy="37.792740" r="5"/><circle cx="-101.699493" cy="33.475403" r="5"/><circle cx="-105.638306" cy="27.640732" r="5"/><circle cx="-110.815582" cy="42.617340" r="5"/><circle cx="-106.041260" cy="50.038223" r="5"/><circle cx="-100.426331" cy="55.549408" r="5"/><circle cx="-12.667660" cy="15.897324" r="5"/><circle cx="-7.646187" cy="18.627136" r="5"/><circle cx="-4.584583" cy="29.351868" r="5"/><circle cx="-0.975330" cy="26.056686" r="5"/><circle cx="-81.883942" cy="76.848343" r="5"/><circle cx="-74.478455" cy="81.136017" r="5"/><circle cx="-74.320450" cy="81.542953" r="5"/><circle cx="-59.662155" cy="37.335281" r="5"/><circle cx="-59.637695" cy="37.343567" r="5"/><circle cx="-56.450798" cy="46.081604" r="5"/><circle cx="-54.492542" cy="43.068024" r="5"/><circle cx="-61.473015" cy="37.351791" r="5"/><circle cx="-61.335396" cy="39.503754" r="5"/><circle cx="-27.548506" cy="18.106689" r="5"/><circle cx="-28.068722" cy="28.493866" r="5"/><circle cx="-28.636499" cy="18.025024" r="5"/><circle cx="-29.614214" cy="18.395660" r="5"/><circle cx="-54.674614" cy="32.992554" r="5"/><circle cx="-53.280727" cy="31.715515" r="5"/><circle cx="-51.053570" cy="40.604218" r="5"/><circle cx="-47.551037" cy="38.369720" r="5"/><circle cx="-59.005684" cy="37.116028" r="5"/><circle cx="-57.965729" cy="36.125381" r="5"/><circle cx="-56.423447" cy="34.655762" r="5"/><circle cx="-54.768681" cy="33.078720" r="5"/><circle cx="-59.347580" cy="37.441559" r="5"/><circle cx="-59.211418" cy="37.302795" r="5"/><circle cx="-55.528507" cy="18.523895" r="5"/><circle cx="-51.779736" cy="23.149841" r="5"/><circle cx="-53.779434" cy="24.278671" r="5"/><circle cx="-53.105080" cy="24.768997" r="5"/><circle cx="-109.054413" cy="68.371918" r="5"/><circle cx="-110.763931" cy="55.992661" r="5"/><circle cx="-104.636452" cy="61.619049" r="5"/><circle cx="-115.285194" cy="61.334366" r="5"/><circle cx="-115.285194" cy="46.934677" r="5"/><circle cx="-21.773346" cy="25.925308" r="5"/><circle cx="-18.995531" cy="40.231277" r="5"/><circle cx="-59.270401" cy="20.283386" r="5"/><circle cx="-60.609665" cy="19.309174" r="5"/><circle cx="-61.486824" cy="11.171478" r="5"/><circle cx="-63.531178" cy="17.384491" r="5"/><circle cx="-64.906410" cy="16.559097" r="5"/><circle cx="-58.919640" cy="19.123581" r="5"/><circle cx="-59.268539" cy="17.329437" r="5"/><circle cx="-74.159775" cy="31.079193" r="5"/><circle cx="-71.996338" cy="34.730804" r="5"/><circle cx="-78.249588" cy="27.911407" r="5"/><circle cx="-73.006905" cy="35.321365" r="5"/><circle cx="-74.094559" cy="35.976425" r="5"/><circle cx="-34.422623" cy="-45.789444" r="5"/><circle cx="-29.803251" cy="-43.837807" r="5"/><circle cx="-32.938911" cy="-39.207314" r="5"/><circle cx="-27.659954" cy="-37.150711" r="5"/><circle cx="-40.323639" cy="-50.525509" r="5"/><circle cx="-38.316254" cy="-42.579308" r="5"/><circle cx="-74.475807" cy="26.862549" r="5"/><circle cx="-77.048546" cy="23.621292" r="5"/><circle cx="-74.338486" cy="26.582733" r="5"/><circle cx="-74.991791" cy="20.234055" r="5"/><circle cx="-73.372482" cy="24.000015" r="5"/><circle cx="-73.154907" cy="23.499191" r="5"/><circle cx="-74.387756" cy="29.241928" r="5"/><circle cx="-74.428398" cy="28.152222" r="5"/><circle cx="-128.958069" cy="-331.149475" r="5"/><circle cx="-134.693054" cy="-329.166168" r="5"/><circle cx="-130.526306" cy="-334.265350" r="5"/><circle cx="-135.841125" cy="-332.583008" r="5"/><circle cx="-132.229584" cy="-337.724670" r="5"/><circle cx="-137.103973" cy="-336.338013" r="5"/><circle cx="-134.022125" cy="-341.405701" r="5"/><circle cx="-138.441925" cy="-340.311768" r="5"/><circle cx="-135.851913" cy="-345.181396" r="5"/><circle cx="-139.810638" cy="-344.379944" r="5"/><circle cx="-137.660522" cy="-348.926086" r="5"/><circle cx="-141.161011" cy="-348.417725" r="5"/><circle cx="-140.824112" cy="-349.575867" r="5"/><circle cx="-143.886169" cy="-349.160889" r="5"/><circle cx="-144.588638" cy="-350.269867" r="5"/><circle cx="-147.819763" cy="-349.504059" r="5"/><circle cx="-133.696289" cy="-326.196594" r="5"/><circle cx="-127.566727" cy="-328.486633" r="5"/><circle cx="-127.085930" cy="-325.783264" r="5"/><circle cx="-122.120773" cy="-328.159973" r="5"/><circle cx="-47.675610" cy="-52.314571" r="5"/><circle cx="-44.668980" cy="-43.950920" r="5"/><circle cx="-41.727425" cy="-34.802460" r="5"/><circle cx="-53.281429" cy="-42.630402" r="5"/><circle cx="-55.092945" cy="-50.819454" r="5"/><circle cx="-51.562435" cy="-33.648781" r="5"/><circle cx="-60.083965" cy="-30.521103" r="5"/><circle cx="-64.243965" cy="-37.724228" r="5"/><circle cx="-68.462158" cy="-27.105438" r="5"/><circle cx="-74.878632" cy="-32.213638" r="5"/><circle cx="-80.655602" cy="-20.897499" r="5"/><circle cx="-87.142792" cy="-24.949997" r="5"/><circle cx="-72.798782" cy="22.679642" r="5"/><circle cx="-71.991768" cy="17.378510" r="5"/><circle cx="-72.381622" cy="21.725616" r="5"/><circle cx="-71.123070" cy="19.790878" r="5"/><circle cx="-21.765087" cy="6.102417" r="5"/><circle cx="-22.530901" cy="6.298775" r="5"/><circle cx="-20.996302" cy="3.777046" r="5"/><circle cx="-23.447550" cy="6.636734" r="5"/><circle cx="-26.434713" cy="3.046341" r="5"/><circle cx="-23.626616" cy="6.703873" r="5"/><circle cx="-25.466015" cy="7.464294" r="5"/><circle cx="-15.516201" cy="4.275192" r="5"/><circle cx="-19.358412" cy="5.601227" r="5"/><circle cx="-20.519552" cy="5.844757" r="5"/><circle cx="-14.809887" cy="5.132217" r="5"/><circle cx="-15.372860" cy="5.109520" r="5"/><circle cx="-16.707447" cy="5.052780" r="5"/><circle cx="-33.773094" cy="9.752121" r="5"/><circle cx="-35.918320" cy="10.229431" r="5"/><circle cx="-36.285301" cy="10.306366" r="5"/><circle cx="-36.093983" cy="10.279007" r="5"/><circle cx="-27.717274" cy="8.390625" r="5"/><circle cx="-31.113081" cy="9.164200" r="5"/><circle cx="-32.215027" cy="2.649803" r="5"/><circle cx="-38.720795" cy="3.154404" r="5"/><circle cx="-37.345955" cy="12.715729" r="5"/><circle cx="-19.326660" cy="-35.277069" r="5"/><circle cx="-22.226532" cy="-28.579315" r="5"/><circle cx="-23.536856" cy="-35.942719" r="5"/><circle cx="-25.579725" cy="-29.831772" r="5"/><circle cx="-19.929665" cy="-42.273895" r="5"/><circle cx="-24.929844" cy="-42.655655" r="5"/><circle cx="-70.977722" cy="19.377686" r="5"/><circle cx="-70.866554" cy="19.062622" r="5"/><circle cx="-14.462448" cy="5.683243" r="5"/><circle cx="-31.533524" cy="-31.989906" r="5"/><circle cx="-36.392693" cy="-33.869484" r="5"/><circle cx="-34.385307" cy="-25.923286" r="5"/><circle cx="-38.720795" cy="-26.438873" r="5"/><circle cx="-49.750919" cy="-25.459724" r="5"/><circle cx="-69.546562" cy="56.598206" r="5"/><circle cx="-69.385185" cy="57.737549" r="5"/><circle cx="-69.750282" cy="57.893463" r="5"/><circle cx="-68.880753" cy="57.947708" r="5"/><circle cx="-73.171204" cy="-379.451172" r="5"/><circle cx="-70.674911" cy="-376.425354" r="5"/><circle cx="-72.687996" cy="-376.072083" r="5"/><circle cx="-70.210197" cy="-372.799866" r="5"/><circle cx="-72.204788" cy="-372.407227" r="5"/><circle cx="-69.792679" cy="-369.187866" r="5"/><circle cx="-71.768089" cy="-368.746765" r="5"/><circle cx="-71.139328" cy="-379.758484" r="5"/><circle cx="-73.608078" cy="-382.277222" r="5"/><circle cx="-71.556198" cy="-382.518616" r="5"/><circle cx="-73.956390" cy="-384.327515" r="5"/><circle cx="-71.882683" cy="-384.474548" r="5"/><circle cx="-177.078308" cy="-259.671844" r="5"/><circle cx="-171.144928" cy="-264.159485" r="5"/><circle cx="-170.097961" cy="-251.109528" r="5"/><circle cx="-165.036987" cy="-256.746033" r="5"/><circle cx="-162.971588" cy="-243.759735" r="5"/><circle cx="-176.668793" cy="-271.860413" r="5"/><circle cx="-183.366028" cy="-268.696869" r="5"/><circle cx="-74.066963" cy="70.480988" r="5"/><circle cx="-74.390350" cy="73.312943" r="5"/><circle cx="-74.153885" cy="71.340714" r="5"/><circle cx="-72.606018" cy="31.918793" r="5"/><circle cx="-72.150589" cy="32.091156" r="5"/><circle cx="-71.398392" cy="34.381607" r="5"/><circle cx="-113.264534" cy="74.441559" r="5"/><circle cx="-107.201950" cy="80.581177" r="5"/><circle cx="-111.268524" cy="87.388885" r="5"/><circle cx="-98.844040" cy="95.617447" r="5"/><circle cx="-99.582130" cy="104.539291" r="5"/><circle cx="-79.400330" cy="109.376740" r="5"/><circle cx="-49.760799" cy="14.892799" r="5"/><circle cx="-44.383503" cy="19.655350" r="5"/><circle cx="-48.014481" cy="15.161766" r="5"/><circle cx="-46.134510" cy="15.482697" r="5"/><circle cx="-67.281708" cy="33.939026" r="5"/><circle cx="-67.144928" cy="33.991119" r="5"/><circle cx="-67.050507" cy="34.350052" r="5"/><circle cx="-66.391312" cy="34.268967" r="5"/><circle cx="-66.429771" cy="34.330185" r="5"/><circle cx="-66.241508" cy="34.324188" r="5"/><circle cx="-67.780190" cy="33.749435" r="5"/><circle cx="-67.225456" cy="34.355637" r="5"/><circle cx="-70.824760" cy="34.383911" r="5"/><circle cx="-68.408714" cy="34.396591" r="5"/><circle cx="-17.306875" cy="15.193855" r="5"/><circle cx="-18.183697" cy="15.758896" r="5"/><circle cx="-21.033934" cy="16.966431" r="5"/><circle cx="-73.341995" cy="43.817520" r="5"/><circle cx="-72.477203" cy="46.143478" r="5"/><circle cx="-71.078568" cy="49.924835" r="5"/><circle cx="-71.260025" cy="49.099915" r="5"/><circle cx="-101.238892" cy="-17.064316" r="5"/><circle cx="-93.625931" cy="-28.764442" r="5"/><circle cx="-95.720688" cy="-14.659698" r="5"/><circle cx="-59.972088" cy="54.678513" r="5"/><circle cx="-60.189713" cy="53.616379" r="5"/><circle cx="-58.286106" cy="49.633591" r="5"/><circle cx="-60.249172" cy="53.327682" r="5"/><circle cx="-150.599091" cy="-342.738556" r="5"/><circle cx="-152.493713" cy="-348.207642" r="5"/><circle cx="-150.783630" cy="-347.147827" r="5"/><circle cx="-152.493713" cy="-348.207642" r="5"/><circle cx="-70.551224" cy="81.994019" r="5"/><circle cx="-69.839676" cy="84.324188" r="5"/><circle cx="-71.266006" cy="81.885193" r="5"/><circle cx="-74.187744" cy="81.625366" r="5"/><circle cx="-62.061596" cy="57.978363" r="5"/><circle cx="-61.540157" cy="62.368423" r="5"/><circle cx="-63.399834" cy="58.303024" r="5"/><circle cx="-64.689507" cy="58.635468" r="5"/><circle cx="-13.782574" cy="-18.676430" r="5"/><circle cx="-8.150120" cy="-18.181038" r="5"/><circle cx="-7.995792" cy="-10.813034" r="5"/><circle cx="-1.560104" cy="-11.943230" r="5"/><circle cx="-14.360451" cy="-11.025909" r="5"/><circle cx="-18.230656" cy="-20.588081" r="5"/><circle cx="-50.779949" cy="26.751938" r="5"/><circle cx="-50.778652" cy="26.752930" r="5"/><circle cx="-53.795708" cy="18.244598" r="5"/><circle cx="-52.697239" cy="17.316086" r="5"/><circle cx="-37.423016" cy="13.051437" r="5"/><circle cx="-37.458752" cy="13.565903" r="5"/><circle cx="-52.623280" cy="17.255447" r="5"/><circle cx="6.918133" cy="-6.008865" r="5"/><circle cx="8.942913" cy="1.391434" r="5"/><circle cx="-0.493118" cy="-4.592201" r="5"/><circle cx="0.573872" cy="2.758774" r="5"/><circle cx="-7.841480" cy="-3.444977" r="5"/><circle cx="4.893356" cy="-13.409218" r="5"/><circle cx="-2.627094" cy="-19.294197" r="5"/><circle cx="-159.978714" cy="-320.022461" r="5"/><circle cx="-159.497269" cy="-324.152893" r="5"/><circle cx="-149.823486" cy="-320.578064" r="5"/><circle cx="3.779640" cy="5.461098" r="5"/><circle cx="10.683098" cy="2.467041" r="5"/><circle cx="7.032856" cy="8.124161" r="5"/><circle cx="12.473335" cy="3.509125" r="5"/><circle cx="10.238621" cy="10.826485" r="5"/><circle cx="14.213509" cy="4.584663" r="5"/><circle cx="-22.925781" cy="18.292007" r="5"/><circle cx="-23.239811" cy="18.300369" r="5"/><circle cx="-13.262413" cy="37.274582" r="5"/><circle cx="-53.079849" cy="31.531448" r="5"/><circle cx="-52.289444" cy="30.733414" r="5"/><circle cx="-50.274540" cy="28.567322" r="5"/><circle cx="-62.044006" cy="70.952499" r="5"/><circle cx="-65.522751" cy="58.844650" r="5"/><circle cx="-66.591743" cy="58.781845" r="5"/><circle cx="-54.459236" cy="79.762756" r="5"/><circle cx="-23.334621" cy="18.302277" r="5"/><circle cx="-26.133474" cy="18.403870" r="5"/><circle cx="-61.082027" cy="49.333710" r="5"/><circle cx="-61.140709" cy="50.395645" r="5"/><circle cx="-78.682503" cy="33.475403" r="5"/><circle cx="-74.517487" cy="38.557816" r="5"/><circle cx="-74.650017" cy="37.920975" r="5"/><circle cx="-73.744072" cy="42.266510" r="5"/><circle cx="-78.305351" cy="42.528625" r="5"/><circle cx="-150.229126" cy="-333.916473" r="5"/><circle cx="-149.902283" cy="-321.964478" r="5"/><circle cx="-150.075821" cy="-329.678223" r="5"/><circle cx="-149.962646" cy="-325.667847" r="5"/><circle cx="-150.408661" cy="-338.298828" r="5"/><circle cx="-74.580338" cy="36.274124" r="5"/><circle cx="-53.150143" cy="72.281052" r="5"/><circle cx="-61.114838" cy="57.259048" r="5"/><circle cx="-61.734241" cy="57.730499" r="5"/><circle cx="-61.170635" cy="41.627289" r="5"/><circle cx="-61.228821" cy="40.882660" r="5"/><circle cx="-61.129566" cy="46.546555" r="5"/><circle cx="-61.165764" cy="44.615295" r="5"/><circle cx="-61.169083" cy="44.418335" r="5"/><circle cx="-30.771555" cy="-16.055252" r="5"/><circle cx="-38.720795" cy="-16.574448" r="5"/><circle cx="-30.049814" cy="-25.407776" r="5"/><circle cx="-60.665085" cy="56.914459" r="5"/><circle cx="-60.479660" cy="56.207504" r="5"/><circle cx="-60.383961" cy="55.873825" r="5"/><circle cx="-76.209564" cy="-385.635132" r="5"/><circle cx="-74.181549" cy="-385.441650" r="5"/><circle cx="-76.521332" cy="-385.101685" r="5"/><circle cx="-76.236320" cy="-383.894836" r="5"/><circle cx="-75.826683" cy="-381.792480" r="5"/><circle cx="-75.327728" cy="-378.950317" r="5"/><circle cx="-74.781822" cy="-375.579590" r="5"/><circle cx="-74.235100" cy="-371.931335" r="5"/><circle cx="-73.733871" cy="-368.277618" r="5"/><circle cx="-11.516090" cy="-32.625572" r="5"/><circle cx="-6.386017" cy="-36.401276" r="5"/><circle cx="-6.930588" cy="-30.528397" r="5"/><circle cx="-2.323952" cy="-33.556252" r="5"/><circle cx="-2.393341" cy="-28.956802" r="5"/><circle cx="3.747410" cy="-25.690559" r="5"/><circle cx="3.472973" cy="-24.116783" r="5"/><circle cx="-18.833670" cy="-27.584991" r="5"/><circle cx="-12.729057" cy="-25.307426" r="5"/><circle cx="-7.605537" cy="-24.053917" r="5"/><circle cx="-2.557701" cy="-23.893654" r="5"/><circle cx="3.143002" cy="-22.383347" r="5"/><circle cx="-78.799782" cy="-383.069458" r="5"/><circle cx="-78.274521" cy="-380.973206" r="5"/><circle cx="-81.698334" cy="-381.780029" r="5"/><circle cx="-80.993286" cy="-379.758423" r="5"/><circle cx="-84.880432" cy="-380.097839" r="5"/><circle cx="-83.941299" cy="-378.209106" r="5"/><circle cx="-88.268738" cy="-378.130005" r="5"/><circle cx="-87.056015" cy="-376.416443" r="5"/><circle cx="-91.785919" cy="-375.983704" r="5"/><circle cx="-90.274948" cy="-374.471680" r="5"/><circle cx="-95.354668" cy="-373.766052" r="5"/><circle cx="-93.535553" cy="-372.466125" r="5"/><circle cx="-98.897629" cy="-371.584045" r="5"/><circle cx="-96.775314" cy="-370.490906" r="5"/><circle cx="-79.194550" cy="-384.325073" r="5"/><circle cx="-82.261810" cy="-383.032288" r="5"/><circle cx="-85.662498" cy="-381.302917" r="5"/><circle cx="-89.305679" cy="-379.255920" r="5"/><circle cx="-93.100418" cy="-377.010559" r="5"/><circle cx="-96.955780" cy="-374.685608" r="5"/><circle cx="-100.780838" cy="-372.400513" r="5"/><circle cx="-78.771973" cy="-385.117310" r="5"/><circle cx="-81.948746" cy="-384.042114" r="5"/><circle cx="-85.501450" cy="-382.628784" r="5"/><circle cx="-89.274124" cy="-380.982056" r="5"/><circle cx="-93.002747" cy="-378.999084" r="5"/><circle cx="-96.794556" cy="-376.953491" r="5"/><circle cx="-100.771210" cy="-375.971985" r="5"/><circle cx="-19.152533" cy="-12.466377" r="5"/><circle cx="-24.435854" cy="-14.414337" r="5"/><circle cx="-23.436422" cy="-23.144684" r="5"/><circle cx="-20.074417" cy="-4.344666" r="5"/><circle cx="-25.435284" cy="-5.683990" r="5"/><circle cx="-31.493290" cy="-6.702728" r="5"/><circle cx="-38.720795" cy="-6.710030" r="5"/><circle cx="-48.551491" cy="-15.320618" r="5"/><circle cx="-47.352062" cy="-5.181435" r="5"/><circle cx="-59.358620" cy="-12.295654" r="5"/><circle cx="-56.668987" cy="-2.257957" r="5"/><circle cx="-69.943916" cy="-7.664833" r="5"/><circle cx="-65.715363" cy="1.753319" r="5"/><circle cx="-79.109116" cy="-1.593414" r="5"/><circle cx="-73.535011" cy="6.545128" r="5"/><circle cx="-84.744949" cy="4.187408" r="5"/><circle cx="-78.368362" cy="10.782951" r="5"/><circle cx="-88.879868" cy="10.684563" r="5"/><circle cx="-81.935822" cy="15.459282" r="5"/><circle cx="-91.688652" cy="17.798203" r="5"/><circle cx="-84.368591" cy="20.709717" r="5"/><circle cx="-93.346146" cy="25.428467" r="5"/><circle cx="-85.797867" cy="26.669922" r="5"/><circle cx="-94.027168" cy="33.475403" r="5"/><circle cx="-86.354836" cy="33.475403" r="5"/><circle cx="-93.781784" cy="43.973907" r="5"/><circle cx="-86.043564" cy="43.251236" r="5"/><circle cx="-92.686432" cy="54.808258" r="5"/><circle cx="-84.946518" cy="54.067123" r="5"/><circle cx="-91.143723" cy="65.819458" r="5"/><circle cx="-83.435913" cy="65.430344" r="5"/><circle cx="-89.556274" cy="76.848343" r="5"/><circle cx="-74.292076" cy="81.616089" r="5"/><circle cx="-134.871918" cy="-356.493042" r="5"/><circle cx="-132.949875" cy="-356.999634" r="5"/><circle cx="-131.335999" cy="-355.779785" r="5"/><circle cx="-128.899414" cy="-357.888855" r="5"/><circle cx="-126.008736" cy="-358.860168" r="5"/><circle cx="-20.833544" cy="-21.866386" r="5"/><circle cx="2.868572" cy="-20.809578" r="5"/><circle cx="-14.938328" cy="-3.375320" r="5"/><circle cx="-7.687157" cy="3.923096" r="5"/><circle cx="-3.030685" cy="8.284683" r="5"/><circle cx="1.671623" cy="12.605576" r="5"/><circle cx="6.328094" cy="16.967148" r="5"/><circle cx="-10.462578" cy="-39.256500" r="5"/><circle cx="-77.655663" cy="-378.183289" r="5"/><circle cx="-80.186180" cy="-377.101624" r="5"/><circle cx="-82.888107" cy="-375.753784" r="5"/><circle cx="-85.714691" cy="-374.212402" r="5"/><circle cx="-88.619186" cy="-372.549988" r="5"/><circle cx="-91.554855" cy="-370.839233" r="5"/><circle cx="-94.474930" cy="-369.152588" r="5"/><circle cx="-72.084267" cy="-385.464050" r="5"/><circle cx="-69.937851" cy="-384.443115" r="5"/><circle cx="-69.608513" cy="-382.607910" r="5"/><circle cx="-69.185371" cy="-379.944824" r="5"/><circle cx="-68.712280" cy="-376.691650" r="5"/><circle cx="-68.237915" cy="-373.140686" r="5"/><circle cx="-67.811241" cy="-369.611328" r="5"/><circle cx="-103.726120" cy="17.145889" r="5"/><circle cx="-108.563202" cy="19.709793" r="5"/><circle cx="-106.145081" cy="7.976784" r="5"/><circle cx="-111.268524" cy="8.917458" r="5"/><circle cx="-107.157791" cy="-4.422462" r="5"/><circle cx="-70.600098" cy="18.924332" r="5"/><circle cx="-67.960907" cy="14.683678" r="5"/><circle cx="-69.285416" cy="18.247696" r="5"/><circle cx="-67.010529" cy="16.799515" r="5"/><circle cx="-73.942833" cy="-385.834045" r="5"/><circle cx="-71.895294" cy="-385.799622" r="5"/><circle cx="-70.138535" cy="-385.288025" r="5"/><circle cx="-69.985535" cy="-385.619019" r="5"/><circle cx="-76.314514" cy="-371.341309" r="5"/><circle cx="-75.686409" cy="-367.769806" r="5"/><circle cx="-78.451958" cy="-370.616211" r="5"/><circle cx="-77.623299" cy="-367.216370" r="5"/><circle cx="-80.638519" cy="-369.776917" r="5"/><circle cx="-79.546936" cy="-366.624146" r="5"/><circle cx="-82.860779" cy="-368.854492" r="5"/><circle cx="-81.460945" cy="-366.003876" r="5"/><circle cx="-85.105362" cy="-367.880127" r="5"/><circle cx="-83.368942" cy="-365.366089" r="5"/><circle cx="-87.358871" cy="-366.885010" r="5"/><circle cx="-85.274521" cy="-364.721161" r="5"/><circle cx="-89.607925" cy="-365.900299" r="5"/><circle cx="-87.181305" cy="-364.079834" r="5"/><circle cx="-76.986664" cy="-374.895691" r="5"/><circle cx="-79.322723" cy="-373.985535" r="5"/><circle cx="-81.769791" cy="-372.883972" r="5"/><circle cx="-84.297592" cy="-371.643188" r="5"/><circle cx="-86.875862" cy="-370.315430" r="5"/><circle cx="-89.474319" cy="-368.952759" r="5"/><circle cx="-92.062668" cy="-367.607544" r="5"/><circle cx="-100.894432" cy="24.186996" r="5"/><circle cx="-110.541306" cy="31.518234" r="5"/><circle cx="-113.280609" cy="21.969070" r="5"/><circle cx="-115.285194" cy="34.972015" r="5"/><circle cx="-136.642853" cy="-355.820892" r="5"/><circle cx="-132.971039" cy="-354.354309" r="5"/><circle cx="-130.516388" cy="-355.081512" r="5"/><circle cx="-124.336388" cy="-359.705566" r="5"/><circle cx="-159.460052" cy="-231.328125" r="5"/><circle cx="-162.674347" cy="-224.283875" r="5"/><circle cx="-167.107605" cy="-237.240601" r="5"/><circle cx="-171.243622" cy="-230.721527" r="5"/><circle cx="-175.159012" cy="-245.472992" r="5"/><circle cx="-180.220062" cy="-239.836456" r="5"/><circle cx="-183.011749" cy="-255.184250" r="5"/><circle cx="-188.945129" cy="-250.696594" r="5"/><circle cx="-190.063232" cy="-265.533325" r="5"/><circle cx="-196.760529" cy="-262.369812" r="5"/><circle cx="-156.245697" cy="-238.372375" r="5"/><circle cx="-158.835632" cy="-250.278809" r="5"/><circle cx="-124.886429" cy="-235.495514" r="5"/><circle cx="-130.448181" cy="-233.411224" r="5"/><circle cx="-130.806000" cy="-241.172302" r="5"/><circle cx="-135.418015" cy="-237.298157" r="5"/><circle cx="-137.762131" cy="-243.608627" r="5"/><circle cx="-139.302628" cy="-242.150589" r="5"/><circle cx="-116.820946" cy="-236.274353" r="5"/><circle cx="-124.388474" cy="-238.924667" r="5"/><circle cx="-118.885445" cy="-230.877258" r="5"/><circle cx="-124.700119" cy="-229.381165" r="5"/><circle cx="-130.448181" cy="-227.335205" r="5"/><circle cx="-135.783386" cy="-231.011948" r="5"/><circle cx="-136.148773" cy="-224.725739" r="5"/><circle cx="-141.094604" cy="-228.880829" r="5"/><circle cx="-141.990616" cy="-222.245956" r="5"/><circle cx="-200.108246" cy="-318.026154" r="5"/><circle cx="-192.078674" cy="-314.043274" r="5"/><circle cx="-192.957123" cy="-312.282349" r="5"/><circle cx="-185.348633" cy="-307.830322" r="5"/><circle cx="-185.806000" cy="-306.538635" r="5"/><circle cx="-201.147491" cy="-315.069519" r="5"/><circle cx="-208.615662" cy="-320.220215" r="5"/><circle cx="-207.259369" cy="-323.769897" r="5"/><circle cx="-193.679474" cy="-309.918823" r="5"/><circle cx="-201.966370" cy="-311.197388" r="5"/><circle cx="-209.669617" cy="-315.585236" r="5"/><circle cx="-210.406830" cy="-309.678101" r="5"/><circle cx="-186.559845" cy="-302.421814" r="5"/><circle cx="-194.263123" cy="-306.809631" r="5"/><circle cx="-186.211304" cy="-304.768127" r="5"/><circle cx="-194.667297" cy="-302.830719" r="5"/><circle cx="-202.537048" cy="-306.254395" r="5"/><circle cx="-198.808655" cy="-320.256226" r="5"/><circle cx="-205.538666" cy="-326.469177" r="5"/><circle cx="-140.198639" cy="-235.515717" r="5"/><circle cx="-143.993286" cy="-353.333740" r="5"/><circle cx="-141.483185" cy="-354.263947" r="5"/><circle cx="-139.424622" cy="-351.479431" r="5"/><circle cx="-137.566284" cy="-351.921082" r="5"/><circle cx="-136.535065" cy="-350.228424" r="5"/><circle cx="-135.009308" cy="-350.732117" r="5"/><circle cx="-132.854187" cy="-350.069550" r="5"/><circle cx="-130.694611" cy="-351.464905" r="5"/><circle cx="-130.327454" cy="-347.038452" r="5"/><circle cx="-127.805641" cy="-348.679382" r="5"/><circle cx="-127.776642" cy="-343.972992" r="5"/><circle cx="-124.884781" cy="-345.855865" r="5"/><circle cx="-125.266212" cy="-340.971863" r="5"/><circle cx="-121.995300" cy="-343.076050" r="5"/><circle cx="-122.851730" cy="-338.138794" r="5"/><circle cx="-119.191833" cy="-340.427673" r="5"/><circle cx="-120.579750" cy="-335.574280" r="5"/><circle cx="-116.520279" cy="-337.995728" r="5"/><circle cx="-118.491982" cy="-333.364655" r="5"/><circle cx="-114.022179" cy="-335.852356" r="5"/><circle cx="-113.055031" cy="-332.862000" r="5"/><circle cx="-108.546341" cy="-335.616730" r="5"/><circle cx="-145.987274" cy="-352.250305" r="5"/><circle cx="-141.897034" cy="-350.921570" r="5"/><circle cx="-138.373718" cy="-349.931641" r="5"/><circle cx="-135.033905" cy="-349.349976" r="5"/><circle cx="-132.850174" cy="-345.970032" r="5"/><circle cx="-130.644745" cy="-342.557861" r="5"/><circle cx="-128.480621" cy="-339.228668" r="5"/><circle cx="-126.413246" cy="-336.101013" r="5"/><circle cx="-124.489677" cy="-333.288849" r="5"/><circle cx="-122.752686" cy="-330.892700" r="5"/><circle cx="-117.690399" cy="-330.488922" r="5"/><circle cx="-148.385712" cy="-350.951691" r="5"/><circle cx="-138.228851" cy="-355.311707" r="5"/><circle cx="-134.562576" cy="-353.178162" r="5"/><circle cx="-131.999939" cy="-353.158691" r="5"/><circle cx="-126.435669" cy="-356.282959" r="5"/><circle cx="-139.589417" cy="-354.974121" r="5"/><circle cx="-136.098999" cy="-352.366180" r="5"/><circle cx="-133.497604" cy="-351.708893" r="5"/><circle cx="-128.555145" cy="-353.536041" r="5"/><circle cx="-125.284821" cy="-350.892761" r="5"/><circle cx="-121.969254" cy="-348.206421" r="5"/><circle cx="-118.667831" cy="-345.541443" r="5"/><circle cx="-115.433418" cy="-342.967621" r="5"/><circle cx="-112.311264" cy="-340.553223" r="5"/><circle cx="-109.343262" cy="-338.355804" r="5"/><circle cx="-193.780670" cy="-292.088104" r="5"/><circle cx="-201.676025" cy="-293.103363" r="5"/><circle cx="-194.617432" cy="-297.933441" r="5"/><circle cx="-202.561981" cy="-300.219025" r="5"/><circle cx="-186.797577" cy="-299.406982" r="5"/><circle cx="-186.672974" cy="-295.647858" r="5"/><circle cx="-185.885315" cy="-291.072937" r="5"/><circle cx="-191.824036" cy="-285.265076" r="5"/><circle cx="-184.133911" cy="-285.610809" r="5"/><circle cx="-209.571381" cy="-294.118469" r="5"/><circle cx="-210.506470" cy="-302.504608" r="5"/><circle cx="-199.514069" cy="-284.919434" r="5"/><circle cx="-207.204193" cy="-284.573730" r="5"/><circle cx="-77.206604" cy="53.325974" r="5"/><circle cx="-3.397869" cy="16.582703" r="5"/><circle cx="2.644039" cy="22.752243" r="5"/><circle cx="-72.890381" cy="58.339600" r="5"/><circle cx="-74.307373" cy="58.998734" r="5"/><circle cx="-74.440269" cy="59.136383" r="5"/><circle cx="-74.382919" cy="59.922836" r="5"/><circle cx="-71.541847" cy="57.800797" r="5"/><circle cx="-71.665199" cy="57.791931" r="5"/><circle cx="-72.113388" cy="57.991379" r="5"/><circle cx="-70.738571" cy="51.468567" r="5"/><circle cx="-69.871727" cy="55.405655" r="5"/><circle cx="-69.819847" cy="55.595444" r="5"/><circle cx="-98.851532" cy="66.208572" r="5"/><circle cx="-99.008713" cy="14.886681" r="5"/><circle cx="-97.228600" cy="76.848343" r="5"/><circle cx="-102.918106" cy="73.016342" r="5"/><circle cx="-101.820084" cy="-3.737617" r="5"/><circle cx="-100.947342" cy="6.850464" r="5"/><circle cx="-74.234924" cy="61.229019" r="5"/><circle cx="-67.786308" cy="68.217041" r="5"/><circle cx="-67.327133" cy="65.531815" r="5"/><circle cx="-63.810093" cy="81.389587" r="5"/><circle cx="-57.820389" cy="89.535706" r="5"/><circle cx="-67.704659" cy="78.609207" r="5"/><circle cx="-67.725143" cy="75.972839" r="5"/><circle cx="-67.689957" cy="75.634094" r="5"/><circle cx="-65.580765" cy="91.912170" r="5"/><circle cx="-61.208832" cy="99.388031" r="5"/><circle cx="-68.465195" cy="63.481918" r="5"/><circle cx="-69.639999" cy="61.536316" r="5"/><circle cx="-69.173080" cy="59.093765" r="5"/><circle cx="-69.686050" cy="60.015030" r="5"/><circle cx="-67.292397" cy="58.609680" r="5"/><circle cx="-68.730530" cy="58.010315" r="5"/><circle cx="-67.204247" cy="58.647034" r="5"/><circle cx="-97.966690" cy="85.770187" r="5"/><circle cx="-74.027527" cy="63.139694" r="5"/><circle cx="-73.830734" cy="67.621689" r="5"/><circle cx="-73.491531" cy="65.569305" r="5"/><circle cx="-73.844467" cy="67.706909" r="5"/><circle cx="-69.819313" cy="82.085114" r="5"/><circle cx="-67.977730" cy="82.344666" r="5"/><circle cx="-68.340767" cy="79.481949" r="5"/><circle cx="-96.459259" cy="-3.093063" r="5"/><circle cx="-90.201416" cy="-12.136642" r="5"/><circle cx="-40.139984" cy="10.608414" r="5"/><circle cx="-39.088696" cy="12.653702" r="5"/><circle cx="-38.802910" cy="13.797913" r="5"/><circle cx="-42.301926" cy="9.244820" r="5"/><circle cx="-41.431847" cy="9.505974" r="5"/><circle cx="-46.152630" cy="4.957680" r="5"/><circle cx="-42.700245" cy="9.423836" r="5"/><circle cx="-37.079445" cy="16.695099" r="5"/><circle cx="-39.169518" cy="13.991318" r="5"/><circle cx="-41.949551" cy="15.577316" r="5"/><circle cx="-37.468124" cy="13.701180" r="5"/><circle cx="-37.411823" cy="13.953110" r="5"/><circle cx="-36.816467" cy="16.611191" r="5"/><circle cx="-53.979351" cy="7.779762" r="5"/><circle cx="-57.341419" cy="16.286835" r="5"/><circle cx="-59.225910" cy="17.107224" r="5"/><circle cx="-66.446014" cy="16.440460" r="5"/><circle cx="-65.709671" cy="15.975586" r="5"/><circle cx="-45.453083" cy="10.769402" r="5"/><circle cx="-42.820389" cy="9.477417" r="5"/><circle cx="-49.826420" cy="12.919319" r="5"/><circle cx="-53.030937" cy="14.406944" r="5"/><circle cx="-50.030869" cy="13.019417" r="5"/><circle cx="-44.020226" cy="15.951767" r="5"/><circle cx="-44.850986" cy="15.771591" r="5"/><circle cx="-37.343094" cy="50.207703" r="5"/><circle cx="-42.112411" cy="35.168594" r="5"/><circle cx="-32.405334" cy="47.146896" r="5"/><circle cx="-34.828640" cy="31.572357" r="5"/><circle cx="-25.232792" cy="43.447876" r="5"/><circle cx="-40.593658" cy="52.222656" r="5"/><circle cx="-44.250751" cy="54.489639" r="5"/><circle cx="-46.165363" cy="57.321198" r="5"/><circle cx="-48.317806" cy="60.504440" r="5"/><circle cx="-52.057201" cy="66.034698" r="5"/><circle cx="-49.519844" cy="27.755997" r="5"/><circle cx="-95.823891" cy="5.909790" r="5"/><circle cx="-91.121552" cy="-2.408218" r="5"/><circle cx="-84.683220" cy="-9.732025" r="5"/><circle cx="-74.172462" cy="-17.083061" r="5"/><circle cx="-62.048256" cy="-22.333366" r="5"/><circle cx="-55.899590" cy="-23.896545" r="5"/><circle cx="-36.684322" cy="17.212448" r="5"/><circle cx="-36.572803" cy="17.727768" r="5"/><circle cx="-36.398651" cy="17.960175" r="5"/><circle cx="-35.803738" cy="18.749725" r="5"/><circle cx="-49.669174" cy="27.562729" r="5"/><circle cx="-32.707211" cy="19.410645" r="5"/><circle cx="-32.757881" cy="19.115753" r="5"/><circle cx="-32.332047" cy="19.213684" r="5"/><circle cx="-33.373726" cy="17.295303" r="5"/><circle cx="-35.457230" cy="18.819229" r="5"/><circle cx="-31.690374" cy="19.065781" r="5"/><circle cx="-67.767822" cy="76.081680" r="5"/><circle cx="-80.883774" cy="-37.218513" r="5"/><circle cx="-27.812885" cy="8.430222" r="5"/><circle cx="-70.134628" cy="60.775574" r="5"/><circle cx="-68.375099" cy="79.641556" r="5"/><circle cx="-51.342953" cy="13.670998" r="5"/><circle cx="-149.902283" cy="-321.964478" r="5"/><circle cx="-61.530621" cy="36.448929" r="5"/><circle cx="-130.472717" cy="-358.004944" r="5"/><circle cx="-67.595894" cy="-44.786041" r="5"/><circle cx="-158.512939" cy="-319.950317" r="5"/><circle cx="-153.031403" cy="-245.416702" r="5"/><circle cx="-91.908745" cy="-232.582031" r="5"/><circle cx="-73.916733" cy="25.725708" r="5"/><circle cx="7.739750" cy="-247.926727" r="5"/><circle cx="2.947666" cy="-247.926727" r="5"/><circle cx="2.947666" cy="-255.599014" r="5"/><circle cx="-2.130939" cy="-255.599014" r="5"/><circle cx="-2.130939" cy="-247.926727" r="5"/><circle cx="-7.403522" cy="-255.599014" r="5"/><circle cx="16.121910" cy="-247.926727" r="5"/><circle cx="12.158001" cy="-247.926727" r="5"/><circle cx="12.158001" cy="-255.599014" r="5"/><circle cx="7.739750" cy="-255.599014" r="5"/><circle cx="35.077553" cy="-241.667953" r="5"/><circle cx="34.713486" cy="-255.644714" r="5"/><circle cx="35.859665" cy="-241.669464" r="5"/><circle cx="36.473305" cy="-255.813736" r="5"/><circle cx="37.619484" cy="-241.838486" r="5"/><circle cx="104.859337" cy="-159.473053" r="5"/><circle cx="111.939293" cy="-159.443848" r="5"/><circle cx="103.702095" cy="-153.515167" r="5"/><circle cx="110.757210" cy="-153.322281" r="5"/><circle cx="102.551125" cy="-147.575653" r="5"/><circle cx="109.575188" cy="-147.200714" r="5"/><circle cx="101.350166" cy="-141.489090" r="5"/><circle cx="108.006554" cy="-140.899902" r="5"/><circle cx="100.043068" cy="-135.090057" r="5"/><circle cx="106.385368" cy="-134.225891" r="5"/><circle cx="98.573723" cy="-128.213135" r="5"/><circle cx="104.683815" cy="-126.981125" r="5"/><circle cx="96.868492" cy="-120.712570" r="5"/><circle cx="102.847450" cy="-119.001740" r="5"/><circle cx="94.784340" cy="-112.521378" r="5"/><circle cx="100.715752" cy="-110.258698" r="5"/><circle cx="92.160866" cy="-103.592278" r="5"/><circle cx="98.101555" cy="-100.756653" r="5"/><circle cx="88.837608" cy="-93.877960" r="5"/><circle cx="94.817757" cy="-90.500305" r="5"/><circle cx="84.654106" cy="-83.225899" r="5"/><circle cx="90.677177" cy="-79.494316" r="5"/><circle cx="79.496971" cy="-72.012810" r="5"/><circle cx="85.539665" cy="-67.835213" r="5"/><circle cx="73.441017" cy="-60.417332" r="5"/><circle cx="79.452141" cy="-55.986916" r="5"/><circle cx="66.607994" cy="-49.147320" r="5"/><circle cx="72.508560" cy="-44.505234" r="5"/><circle cx="59.119713" cy="-38.805435" r="5"/><circle cx="64.802864" cy="-33.945900" r="5"/><circle cx="51.097969" cy="-29.994339" r="5"/><circle cx="56.428894" cy="-24.864708" r="5"/><circle cx="42.661911" cy="-23.124817" r="5"/><circle cx="47.489632" cy="-17.637634" r="5"/><circle cx="33.920059" cy="-17.840057" r="5"/><circle cx="38.123688" cy="-11.921532" r="5"/><circle cx="24.978226" cy="-13.591583" r="5"/><circle cx="28.478783" cy="-7.193321" r="5"/><circle cx="-7.403522" cy="-247.926727" r="5"/><circle cx="-9.705219" cy="-255.599014" r="5"/><circle cx="34.499367" cy="-248.717529" r="5"/><circle cx="33.931374" cy="-255.643219" r="5"/><circle cx="19.559235" cy="-247.926727" r="5"/><circle cx="16.121910" cy="-255.599014" r="5"/><circle cx="46.521988" cy="-246.691254" r="5"/><circle cx="41.213684" cy="-246.913330" r="5"/><circle cx="41.220192" cy="-255.599014" r="5"/><circle cx="36.112663" cy="-255.599014" r="5"/><circle cx="36.102203" cy="-247.134628" r="5"/><circle cx="31.301056" cy="-255.599014" r="5"/><circle cx="64.124268" cy="-241.512558" r="5"/><circle cx="55.495201" cy="-244.747437" r="5"/><circle cx="56.517021" cy="-253.555374" r="5"/><circle cx="46.521988" cy="-255.599014" r="5"/><circle cx="26.870743" cy="-247.557602" r="5"/><circle cx="22.934647" cy="-247.750885" r="5"/><circle cx="22.941086" cy="-255.599014" r="5"/><circle cx="19.559235" cy="-255.599014" r="5"/><circle cx="31.289284" cy="-247.350845" r="5"/><circle cx="26.881203" cy="-255.599014" r="5"/><circle cx="113.461632" cy="-170.798706" r="5"/><circle cx="105.718925" cy="-169.659668" r="5"/><circle cx="112.920937" cy="-182.101898" r="5"/><circle cx="105.374977" cy="-179.839996" r="5"/><circle cx="111.053139" cy="-193.189240" r="5"/><circle cx="-89.543030" cy="-232.344955" r="5"/><circle cx="-91.183685" cy="-232.344955" r="5"/><circle cx="-91.183685" cy="-256.294128" r="5"/><circle cx="-91.183685" cy="-244.425720" r="5"/><circle cx="-15.458469" cy="-225.592957" r="5"/><circle cx="-15.458469" cy="-262.447021" r="5"/><circle cx="7.461395" cy="-225.592957" r="5"/><circle cx="-15.458469" cy="-280.874084" r="5"/><circle cx="6.819584" cy="2.601723" r="5"/><circle cx="2.814472" cy="-21.256432" r="5"/><circle cx="9.166546" cy="1.959610" r="5"/><circle cx="3.987953" cy="-21.577553" r="5"/><circle cx="7.135830" cy="-10.072418" r="5"/><circle cx="-86.304108" cy="-256.294128" r="5"/><circle cx="-89.543030" cy="-256.294128" r="5"/><circle cx="37.720627" cy="-240.605164" r="5"/><circle cx="35.374214" cy="-240.600632" r="5"/><circle cx="65.517189" cy="-50.005505" r="5"/><circle cx="65.922478" cy="-50.654613" r="5"/><circle cx="66.763985" cy="-49.341591" r="5"/><circle cx="67.979942" cy="-51.288895" r="5"/><circle cx="-92.824341" cy="-232.344955" r="5"/><circle cx="-92.824341" cy="-256.294128" r="5"/><circle cx="33.027786" cy="-240.596008" r="5"/><circle cx="34.295364" cy="-241.666443" r="5"/><circle cx="-96.148018" cy="-242.431396" r="5"/><circle cx="-96.148018" cy="-248.539108" r="5"/><circle cx="-96.148018" cy="-256.294128" r="5"/><circle cx="-91.908745" cy="-255.599014" r="5"/><circle cx="-87.840675" cy="-232.582031" r="5"/><circle cx="-91.908745" cy="-247.926727" r="5"/><circle cx="-91.908745" cy="-240.254379" r="5"/><circle cx="-15.906216" cy="-313.860016" r="5"/><circle cx="7.931713" cy="-313.860016" r="5"/><circle cx="-15.906216" cy="-312.215942" r="5"/><circle cx="-4.092922" cy="-312.215942" r="5"/><circle cx="-87.840675" cy="-255.599014" r="5"/><circle cx="-83.826706" cy="-255.599014" r="5"/><circle cx="-83.826706" cy="-232.582031" r="5"/><circle cx="-79.886894" cy="-232.582031" r="5"/><circle cx="7.461395" cy="-262.447021" r="5"/><circle cx="7.461395" cy="-244.020020" r="5"/><circle cx="7.461395" cy="-299.301178" r="5"/><circle cx="-96.148018" cy="-232.344955" r="5"/><circle cx="-15.906216" cy="-317.148132" r="5"/><circle cx="7.931713" cy="-317.148132" r="5"/><circle cx="-15.906216" cy="-307.283722" r="5"/><circle cx="-15.906216" cy="-310.571869" r="5"/><circle cx="7.931713" cy="-310.571869" r="5"/><circle cx="64.582436" cy="-48.153969" r="5"/><circle cx="54.169556" cy="-57.964977" r="5"/><circle cx="65.111885" cy="-49.356400" r="5"/><circle cx="54.528221" cy="-58.539310" r="5"/><circle cx="54.574913" cy="-58.614082" r="5"/><circle cx="59.997520" cy="-54.347954" r="5"/><circle cx="65.548096" cy="-47.394279" r="5"/><circle cx="54.980209" cy="-59.263187" r="5"/><circle cx="56.072067" cy="-60.657146" r="5"/><circle cx="67.014351" cy="-52.048573" r="5"/><circle cx="5.161434" cy="-21.898605" r="5"/><circle cx="11.513508" cy="1.317451" r="5"/><circle cx="7.508396" cy="-22.540779" r="5"/><circle cx="13.860470" cy="0.675339" r="5"/><circle cx="-72.307671" cy="-232.582031" r="5"/><circle cx="-68.706070" cy="-255.599014" r="5"/><circle cx="-68.706070" cy="-232.582031" r="5"/><circle cx="-65.253937" cy="-232.582031" r="5"/><circle cx="-65.253937" cy="-255.599014" r="5"/><circle cx="-61.968502" cy="-232.582031" r="5"/><circle cx="-76.040817" cy="-232.582031" r="5"/><circle cx="-76.040817" cy="-255.599014" r="5"/><circle cx="-79.886894" cy="-255.599014" r="5"/><circle cx="-72.307671" cy="-255.599014" r="5"/><circle cx="13.181923" cy="-16.731430" r="5"/><circle cx="10.421555" cy="-23.632118" r="5"/><circle cx="21.477600" cy="-19.989838" r="5"/><circle cx="17.976982" cy="-26.388107" r="5"/><circle cx="29.716370" cy="-23.758575" r="5"/><circle cx="25.512741" cy="-29.677162" r="5"/><circle cx="37.834198" cy="-28.611938" r="5"/><circle cx="33.006485" cy="-34.099121" r="5"/><circle cx="45.767036" cy="-35.124039" r="5"/><circle cx="40.436104" cy="-40.253670" r="5"/><circle cx="53.436562" cy="-43.665047" r="5"/><circle cx="47.753464" cy="-48.524605" r="5"/><circle cx="60.707420" cy="-53.789444" r="5"/><circle cx="54.806923" cy="-58.431553" r="5"/><circle cx="67.429901" cy="-64.847733" r="5"/><circle cx="61.418846" cy="-69.278137" r="5"/><circle cx="73.454300" cy="-76.190399" r="5"/><circle cx="67.411682" cy="-80.367996" r="5"/><circle cx="78.630951" cy="-87.167923" r="5"/><circle cx="72.607872" cy="-91.004730" r="5"/><circle cx="82.857460" cy="-97.255600" r="5"/><circle cx="76.877258" cy="-100.633247" r="5"/><circle cx="86.220177" cy="-106.427895" r="5"/><circle cx="80.279488" cy="-109.263512" r="5"/><circle cx="88.853004" cy="-114.784073" r="5"/><circle cx="82.921638" cy="-117.046761" r="5"/><circle cx="90.889610" cy="-122.423393" r="5"/><circle cx="84.910652" cy="-124.134232" r="5"/><circle cx="92.463692" cy="-129.445145" r="5"/><circle cx="86.353615" cy="-130.677139" r="5"/><circle cx="93.700829" cy="-135.954239" r="5"/><circle cx="87.358543" cy="-136.818405" r="5"/><circle cx="94.693794" cy="-142.078293" r="5"/><circle cx="88.037392" cy="-142.667480" r="5"/><circle cx="95.527061" cy="-147.950592" r="5"/><circle cx="88.502998" cy="-148.325531" r="5"/><circle cx="96.285179" cy="-153.704422" r="5"/><circle cx="88.868248" cy="-153.893677" r="5"/><circle cx="97.052696" cy="-159.473068" r="5"/><circle cx="89.550804" cy="-160.637634" r="5"/><circle cx="97.976143" cy="-168.520615" r="5"/><circle cx="90.233421" cy="-167.381561" r="5"/><circle cx="97.829033" cy="-177.578064" r="5"/><circle cx="90.283134" cy="-175.316132" r="5"/><circle cx="96.613853" cy="-186.490387" r="5"/><circle cx="89.394279" cy="-183.141022" r="5"/><circle cx="94.351418" cy="-195.105179" r="5"/><circle cx="87.687294" cy="-190.722290" r="5"/><circle cx="91.080437" cy="-203.274963" r="5"/><circle cx="84.877495" cy="-197.930222" r="5"/><circle cx="86.856834" cy="-210.859985" r="5"/><circle cx="81.326897" cy="-204.641571" r="5"/><circle cx="81.752846" cy="-217.730408" r="5"/><circle cx="76.991028" cy="-210.741409" r="5"/><circle cx="75.855949" cy="-223.768829" r="5"/><circle cx="71.943993" cy="-216.125412" r="5"/><circle cx="69.266853" cy="-228.871704" r="5"/><circle cx="66.272141" cy="-220.701447" r="5"/><circle cx="62.098450" cy="-232.951950" r="5"/><circle cx="60.072685" cy="-224.391266" r="5"/><circle cx="54.473381" cy="-235.939560" r="5"/><circle cx="53.451485" cy="-227.131668" r="5"/><circle cx="46.521988" cy="-237.783539" r="5"/><circle cx="46.521988" cy="-228.875763" r="5"/><circle cx="41.207237" cy="-238.227570" r="5"/><circle cx="41.200729" cy="-229.541870" r="5"/><circle cx="36.091743" cy="-238.670227" r="5"/><circle cx="36.081352" cy="-230.205826" r="5"/><circle cx="31.277512" cy="-239.102676" r="5"/><circle cx="31.265739" cy="-230.854446" r="5"/><circle cx="26.860352" cy="-239.516205" r="5"/><circle cx="26.849899" cy="-231.474777" r="5"/><circle cx="22.928131" cy="-239.902679" r="5"/><circle cx="22.921623" cy="-232.054474" r="5"/><circle cx="19.559235" cy="-240.254379" r="5"/><circle cx="19.559235" cy="-232.582031" r="5"/><circle cx="16.121910" cy="-240.254379" r="5"/><circle cx="16.121910" cy="-232.582031" r="5"/><circle cx="12.158001" cy="-240.254379" r="5"/><circle cx="12.158001" cy="-232.582031" r="5"/><circle cx="7.739750" cy="-240.254379" r="5"/><circle cx="7.739750" cy="-232.582031" r="5"/><circle cx="2.947666" cy="-240.254379" r="5"/><circle cx="2.947666" cy="-232.582031" r="5"/><circle cx="-2.130939" cy="-240.254379" r="5"/><circle cx="-2.130939" cy="-232.582031" r="5"/><circle cx="-7.403522" cy="-240.254379" r="5"/><circle cx="-7.403522" cy="-232.582031" r="5"/><circle cx="-15.458469" cy="-299.301178" r="5"/><circle cx="7.039845" cy="-311.960846" r="5"/><circle cx="7.461395" cy="-312.076599" r="5"/><circle cx="32.926643" cy="-241.829269" r="5"/><circle cx="33.149254" cy="-255.641708" r="5"/><circle cx="33.841278" cy="-255.643005" r="5"/><circle cx="15.942284" cy="-9.830673" r="5"/><circle cx="103.833504" cy="-189.839813" r="5"/><circle cx="101.120842" cy="-199.488068" r="5"/><circle cx="97.283333" cy="-208.619705" r="5"/><circle cx="92.386696" cy="-217.078384" r="5"/><circle cx="86.514732" cy="-224.719498" r="5"/><circle cx="79.767860" cy="-231.412170" r="5"/><circle cx="72.261566" cy="-237.041992" r="5"/><circle cx="-9.705219" cy="-232.582031" r="5"/><circle cx="4.893356" cy="-13.409218" r="5"/><circle cx="2.868572" cy="-20.809578" r="5"/><circle cx="-0.632488" cy="-311.960846" r="5"/><circle cx="-8.304813" cy="-311.960846" r="5"/><circle cx="18.702675" cy="-2.929985" r="5"/><circle cx="6.918133" cy="-6.008865" r="5"/><circle cx="8.942913" cy="1.391434" r="5"/><circle cx="-61.968502" cy="-255.599014" r="5"/><circle cx="-58.866135" cy="-255.599014" r="5"/><circle cx="-58.866135" cy="-232.582031" r="5"/><circle cx="-55.962280" cy="-255.599014" r="5"/><circle cx="-55.962280" cy="-232.582031" r="5"/><circle cx="-53.271423" cy="-232.582031" r="5"/><circle cx="103.486275" cy="-213.964447" r="5"/><circle cx="97.916618" cy="-223.296844" r="5"/><circle cx="91.276619" cy="-231.708496" r="5"/><circle cx="107.890221" cy="-203.871033" r="5"/><circle cx="75.256264" cy="-245.212250" r="5"/><circle cx="66.150093" cy="-250.073227" r="5"/><circle cx="83.679832" cy="-239.055588" r="5"/><circle cx="-17.742691" cy="-255.599014" r="5"/><circle cx="-13.751854" cy="-255.599014" r="5"/><circle cx="-13.751854" cy="-232.582031" r="5"/><circle cx="-45.567142" cy="-255.599014" r="5"/><circle cx="-42.639652" cy="-255.599014" r="5"/><circle cx="-42.639652" cy="-232.582031" r="5"/><circle cx="-39.524605" cy="-255.599014" r="5"/><circle cx="-39.524605" cy="-232.582031" r="5"/><circle cx="-36.236214" cy="-232.582031" r="5"/><circle cx="-36.236214" cy="-255.599014" r="5"/><circle cx="-32.789474" cy="-232.582031" r="5"/><circle cx="-53.271423" cy="-255.599014" r="5"/><circle cx="-50.806980" cy="-255.599014" r="5"/><circle cx="-50.806980" cy="-232.582031" r="5"/><circle cx="-48.293732" cy="-255.599014" r="5"/><circle cx="-48.293732" cy="-232.582031" r="5"/><circle cx="-45.567142" cy="-232.582031" r="5"/><circle cx="-25.484461" cy="-255.599014" r="5"/><circle cx="-21.659510" cy="-255.599014" r="5"/><circle cx="-21.659510" cy="-232.582031" r="5"/><circle cx="-17.742691" cy="-232.582031" r="5"/><circle cx="-32.789474" cy="-255.599014" r="5"/><circle cx="-29.200100" cy="-232.582031" r="5"/><circle cx="-29.200100" cy="-255.599014" r="5"/><circle cx="-25.484461" cy="-232.582031" r="5"/><circle cx="31.780533" cy="-255.804535" r="5"/><circle cx="10.340027" cy="1.638489" r="5"/><circle cx="0.467514" cy="-20.614326" r="5"/><circle cx="7.931713" cy="-307.283722" r="5"/><circle cx="-86.304108" cy="-232.344955" r="5"/><circle cx="7.461395" cy="-280.874084" r="5"/><circle cx="53.640160" cy="-56.762531" r="5"/><circle cx="7.931713" cy="-312.215942" r="5"/><circle cx="-15.458469" cy="-244.020020" r="5"/><circle cx="-91.908745" cy="-232.582031" r="5"/><circle cx="-15.977142" cy="-311.960846" r="5"/><circle cx="-159.870605" cy="-323.625183" r="5"/><circle cx="-159.402771" cy="-312.272949" r="5"/><circle cx="-166.874008" cy="-311.303528" r="5"/><circle cx="-162.673798" cy="-293.180908" r="5"/><circle cx="-91.908745" cy="-232.582031" r="5"/><circle cx="-114.758926" cy="-243.601837" r="5"/><circle cx="-91.908745" cy="-240.254379" r="5"/><circle cx="-96.148026" cy="-242.431396" r="5"/><circle cx="-91.908745" cy="-247.926727" r="5"/><circle cx="-133.964783" cy="-250.282349" r="5"/><circle cx="-116.820946" cy="-236.274353" r="5"/><circle cx="-160.102875" cy="-329.261841" r="5"/><circle cx="-160.183563" cy="-331.220154" r="5"/><circle cx="-158.659256" cy="-357.046631" r="5"/><circle cx="-151.986038" cy="-362.041931" r="5"/><circle cx="-147.315491" cy="-355.627808" r="5"/><circle cx="-143.701172" cy="-357.242706" r="5"/><circle cx="-159.639191" cy="-334.497437" r="5"/><circle cx="-167.756683" cy="-332.450043" r="5"/><circle cx="-158.844513" cy="-339.281738" r="5"/><circle cx="-166.544617" cy="-342.250732" r="5"/><circle cx="-156.253448" cy="-346.036896" r="5"/><circle cx="-163.512146" cy="-350.449646" r="5"/><circle cx="-152.410477" cy="-351.485596" r="5"/><circle cx="-149.626205" cy="-353.749237" r="5"/><circle cx="-164.730133" cy="-265.827942" r="5"/><circle cx="-161.443726" cy="-273.642365" r="5"/><circle cx="-162.190521" cy="-262.972015" r="5"/><circle cx="-159.618988" cy="-260.080170" r="5"/><circle cx="-169.716675" cy="-290.321899" r="5"/><circle cx="-167.731506" cy="-269.203125" r="5"/><circle cx="-174.111359" cy="-282.106964" r="5"/><circle cx="-171.184250" cy="-276.186707" r="5"/><circle cx="-154.732300" cy="-254.584824" r="5"/><circle cx="-157.576660" cy="-257.783447" r="5"/><circle cx="-130.806000" cy="-241.172302" r="5"/><circle cx="-124.388474" cy="-238.924667" r="5"/><circle cx="-149.526367" cy="-260.295837" r="5"/><circle cx="-137.762131" cy="-243.608627" r="5"/><circle cx="-155.631012" cy="-296.040527" r="5"/><circle cx="-148.868347" cy="-282.522766" r="5"/><circle cx="-155.155945" cy="-278.082214" r="5"/><circle cx="-144.320526" cy="-266.007446" r="5"/><circle cx="-5.319851" cy="-335.735565" r="5"/><circle cx="-6.534397" cy="-324.803650" r="5"/><circle cx="-14.209557" cy="-324.885803" r="5"/><circle cx="-14.940857" cy="-319.538391" r="5"/><circle cx="-139.114807" cy="-271.719788" r="5"/><circle cx="-130.167511" cy="-256.956604" r="5"/><circle cx="7.461399" cy="-312.076599" r="5"/><circle cx="7.039852" cy="-311.960846" r="5"/><circle cx="7.928585" cy="-318.300720" r="5"/><circle cx="8.817333" cy="-324.640503" r="5"/><circle cx="-126.370369" cy="-263.631470" r="5"/><circle cx="-110.634995" cy="-258.257874" r="5"/><circle cx="-112.696930" cy="-250.929672" r="5"/><circle cx="-96.148026" cy="-248.539108" r="5"/><circle cx="-131.166443" cy="-359.949097" r="5"/><circle cx="-134.503052" cy="-367.269470" r="5"/><circle cx="-127.575470" cy="-359.970398" r="5"/><circle cx="-126.342751" cy="-367.586975" r="5"/><circle cx="-121.293343" cy="-358.580109" r="5"/><circle cx="-119.011444" cy="-366.387756" r="5"/><circle cx="-115.287491" cy="-355.760620" r="5"/><circle cx="-112.509216" cy="-363.671875" r="5"/><circle cx="-111.413300" cy="-352.887817" r="5"/><circle cx="-109.557892" cy="-351.511963" r="5"/><circle cx="-143.492371" cy="-365.435364" r="5"/><circle cx="-134.133942" cy="-359.931610" r="5"/><circle cx="-140.968597" cy="-358.463562" r="5"/><circle cx="-139.106720" cy="-358.863464" r="5"/><circle cx="-136.802322" cy="-359.358398" r="5"/><circle cx="-106.835968" cy="-359.439301" r="5"/><circle cx="-107.390259" cy="-349.966187" r="5"/><circle cx="1.140892" cy="-324.722656" r="5"/><circle cx="2.356117" cy="-335.793274" r="5"/><circle cx="3.013195" cy="-345.172668" r="5"/><circle cx="-8.304813" cy="-311.960846" r="5"/><circle cx="-15.977135" cy="-311.960846" r="5"/><circle cx="-103.594299" cy="-347.259094" r="5"/><circle cx="-101.324677" cy="-355.107819" r="5"/><circle cx="-96.886345" cy="-344.426758" r="5"/><circle cx="-95.308289" cy="-352.095367" r="5"/><circle cx="-89.434044" cy="-343.014954" r="5"/><circle cx="-88.786781" cy="-350.401917" r="5"/><circle cx="-81.237396" cy="-343.023773" r="5"/><circle cx="-81.760162" cy="-350.027466" r="5"/><circle cx="-72.296387" cy="-344.453125" r="5"/><circle cx="-74.228439" cy="-350.971924" r="5"/><circle cx="-63.632614" cy="-346.939941" r="5"/><circle cx="-66.896523" cy="-353.034851" r="5"/><circle cx="-56.267632" cy="-350.121216" r="5"/><circle cx="-60.469341" cy="-356.015564" r="5"/><circle cx="-50.201439" cy="-353.996826" r="5"/><circle cx="-54.946888" cy="-359.914185" r="5"/><circle cx="-45.434052" cy="-358.566895" r="5"/><circle cx="-50.329166" cy="-364.730652" r="5"/><circle cx="-41.965466" cy="-363.831360" r="5"/><circle cx="-46.616180" cy="-370.464966" r="5"/><circle cx="-39.020279" cy="-368.596069" r="5"/><circle cx="-43.049114" cy="-375.673401" r="5"/><circle cx="-35.823105" cy="-371.666748" r="5"/><circle cx="-38.869156" cy="-378.912292" r="5"/><circle cx="-32.373951" cy="-373.043579" r="5"/><circle cx="-34.076294" cy="-380.181519" r="5"/><circle cx="-28.672806" cy="-372.726501" r="5"/><circle cx="-28.670544" cy="-379.481140" r="5"/><circle cx="-24.719679" cy="-370.715454" r="5"/><circle cx="-22.651899" cy="-376.811279" r="5"/><circle cx="-20.975317" cy="-367.810577" r="5"/><circle cx="-16.886215" cy="-373.097717" r="5"/><circle cx="-17.900455" cy="-364.812134" r="5"/><circle cx="-12.239334" cy="-369.266357" r="5"/><circle cx="-15.495110" cy="-361.720032" r="5"/><circle cx="-8.711262" cy="-365.317261" r="5"/><circle cx="-13.759266" cy="-358.534363" r="5"/><circle cx="-6.302006" cy="-361.250275" r="5"/><circle cx="-12.692928" cy="-355.255005" r="5"/><circle cx="-5.011543" cy="-357.065582" r="5"/><circle cx="-12.239040" cy="-350.862305" r="5"/><circle cx="-4.558430" cy="-351.866516" r="5"/><circle cx="-174.345398" cy="-310.334473" r="5"/><circle cx="-176.759613" cy="-287.463409" r="5"/><circle cx="-64.721176" cy="-362.040161" r="5"/><circle cx="-70.207077" cy="-359.281525" r="5"/><circle cx="-73.565826" cy="-365.677887" r="5"/><circle cx="-75.876266" cy="-365.080566" r="5"/><circle cx="-58.781242" cy="-379.359375" r="5"/><circle cx="-51.259747" cy="-377.071838" r="5"/><circle cx="-60.207458" cy="-377.200134" r="5"/><circle cx="-55.247517" cy="-370.935303" r="5"/><circle cx="-64.576195" cy="-372.036316" r="5"/><circle cx="-59.734657" cy="-365.924744" r="5"/><circle cx="-69.028984" cy="-368.195618" r="5"/><circle cx="-71.297409" cy="-366.936768" r="5"/><circle cx="-54.296265" cy="-385.653931" r="5"/><circle cx="-47.041042" cy="-382.659607" r="5"/><circle cx="-55.922775" cy="-383.687012" r="5"/><circle cx="-57.355026" cy="-381.518555" r="5"/><circle cx="-78.186714" cy="-364.483246" r="5"/><circle cx="-76.192352" cy="-357.648834" r="5"/><circle cx="-80.515366" cy="-364.487183" r="5"/><circle cx="-82.844009" cy="-364.491089" r="5"/><circle cx="-88.141212" cy="-357.914856" r="5"/><circle cx="-93.724838" cy="-359.851898" r="5"/><circle cx="-92.124916" cy="-367.752441" r="5"/><circle cx="-94.436722" cy="-369.379211" r="5"/><circle cx="-85.167046" cy="-365.035980" r="5"/><circle cx="-82.297043" cy="-357.180481" r="5"/><circle cx="-87.490082" cy="-365.580841" r="5"/><circle cx="-89.807503" cy="-366.666626" r="5"/><circle cx="3.112114" cy="-352.860718" r="5"/><circle cx="2.652893" cy="-358.857544" r="5"/><circle cx="1.133980" cy="-363.935364" r="5"/><circle cx="-1.946125" cy="-368.866333" r="5"/><circle cx="-6.587456" cy="-373.650391" r="5"/><circle cx="-12.789982" cy="-378.287659" r="5"/><circle cx="-20.553701" cy="-382.778076" r="5"/><circle cx="-28.617422" cy="-386.083374" r="5"/><circle cx="-35.719879" cy="-387.165405" r="5"/><circle cx="-41.861088" cy="-386.024170" r="5"/><circle cx="-99.047935" cy="-362.991547" r="5"/><circle cx="-104.110504" cy="-367.333923" r="5"/><circle cx="-109.732979" cy="-371.487061" r="5"/><circle cx="-116.735855" cy="-374.058899" r="5"/><circle cx="-125.119034" cy="-375.049561" r="5"/><circle cx="-134.882568" cy="-374.458984" r="5"/><circle cx="-146.026550" cy="-372.287170" r="5"/><circle cx="-156.665924" cy="-368.372925" r="5"/><circle cx="-164.915924" cy="-362.555084" r="5"/><circle cx="-170.776642" cy="-354.833679" r="5"/><circle cx="-174.247864" cy="-345.208618" r="5"/><circle cx="-175.329803" cy="-333.679993" r="5"/><circle cx="-91.908745" cy="-255.599014" r="5"/><circle cx="-4.661205" cy="-344.756500" r="5"/><circle cx="-12.340504" cy="-344.336548" r="5"/><circle cx="-12.997353" cy="-335.677673" r="5"/><circle cx="10.311382" cy="-360.637024" r="5"/><circle cx="10.780266" cy="-353.846252" r="5"/><circle cx="10.687542" cy="-345.583252" r="5"/><circle cx="10.033226" cy="-335.848022" r="5"/><circle cx="-0.632488" cy="-311.960846" r="5"/><circle cx="-24.868137" cy="-391.164856" r="5"/><circle cx="-28.539322" cy="-392.592041" r="5"/><circle cx="-37.337585" cy="-394.057312" r="5"/><circle cx="-44.834251" cy="-393.061523" r="5"/><circle cx="-51.029312" cy="-389.604736" r="5"/><circle cx="-52.669754" cy="-387.620972" r="5"/><circle cx="-18.439453" cy="-388.665649" r="5"/><circle cx="8.561619" cy="-366.601868" r="5"/><circle cx="4.811661" cy="-372.387146" r="5"/><circle cx="-0.938522" cy="-377.992920" r="5"/><circle cx="-8.688885" cy="-383.419067" r="5"/><circle cx="-12.801720" cy="-385.632080" r="5"/><circle cx="-181.706970" cy="-308.890198" r="5"/><circle cx="-181.581726" cy="-308.347839" r="5"/><circle cx="-181.425629" cy="-307.671600" r="5"/><circle cx="-181.816772" cy="-309.365662" r="5"/><circle cx="-180.411804" cy="-352.496521" r="5"/><circle cx="-181.948029" cy="-348.158875" r="5"/><circle cx="-182.902924" cy="-334.909973" r="5"/><circle cx="-182.359833" cy="-322.137756" r="5"/><circle cx="-181.220245" cy="-306.782227" r="5"/><circle cx="-180.947662" cy="-305.601593" r="5"/><circle cx="-178.839172" cy="-296.469666" r="5"/><circle cx="-177.930054" cy="-292.532532" r="5"/><circle cx="-180.132385" cy="-302.070496" r="5"/><circle cx="-179.557892" cy="-299.582642" r="5"/><circle cx="-180.590363" cy="-304.054199" r="5"/><circle cx="-104.147301" cy="-377.368286" r="5"/><circle cx="-106.933701" cy="-379.395142" r="5"/><circle cx="-109.530449" cy="-380.228516" r="5"/><circle cx="-112.127144" cy="-381.061829" r="5"/><circle cx="-101.360901" cy="-375.341370" r="5"/><circle cx="-96.748520" cy="-371.005981" r="5"/><circle cx="-99.054718" cy="-373.173767" r="5"/><circle cx="-114.438583" cy="-381.803650" r="5"/><circle cx="-123.875526" cy="-382.566772" r="5"/><circle cx="-126.409500" cy="-382.370117" r="5"/><circle cx="-130.795090" cy="-382.029907" r="5"/><circle cx="-157.216217" cy="-376.140015" r="5"/><circle cx="-161.333771" cy="-374.707275" r="5"/><circle cx="-171.163467" cy="-368.057526" r="5"/><circle cx="-178.034882" cy="-359.208069" r="5"/><circle cx="-178.627411" cy="-357.535156" r="5"/><circle cx="-141.599258" cy="-380.477112" r="5"/><circle cx="-148.545715" cy="-379.157166" r="5"/><circle cx="-153.099335" cy="-377.572632" r="5"/><circle cx="-135.244598" cy="-381.684631" r="5"/><circle cx="-138.445343" cy="-381.076477" r="5"/><circle cx="10.157200" cy="-312.816956" r="5"/><circle cx="9.425282" cy="-330.244293" r="5"/><circle cx="-159.636688" cy="-317.949097" r="5"/></svg>