<?xml version="1.0" encoding="utf-8"?>
<svg viewBox="0 0 500 500" xmlns="http://www.w3.org/2000/svg" xmlns:bx="https://boxy-svg.com">
  <defs>
    <radialGradient id="gradient-0" gradientUnits="userSpaceOnUse" cx="344" cy="541" r="217.72">
      <stop offset="0" style="stop-color: rgba(255, 255, 255, 0.298);"/>
      <stop offset="1" style="stop-color: rgba(255, 255, 255, 0);"/>
    </radialGradient>
  </defs>
  <path transform="matrix(0.838007, 0.000019, -0.000019, 0.838007, -38.263828, -203.368408)" d="M 326.020856045 324.024 L 361.979143955 324.024 L 344 541 A 0 0 0 0 1 344 541 L 397.447007686 329.942539666 L 431.456976374 341.618176664 L 344 541 A 0 0 0 0 1 344 541 L 463.081346729 358.732430053 L 491.457488368 380.818467614 L 344 541 A 0 0 0 0 1 344 541 L 515.811374117 407.273839816 L 535.478693458 437.37691307 L 344 541 A 0 0 0 0 1 344 541 L 549.92297319 470.306554011 L 558.750211015 505.164527874 L 344 541 A 0 0 0 0 1 344 541 L 561.719622895 541 L 558.750211015 576.835472126 L 344 541 A 0 0 0 0 1 344 541 L 549.92297319 611.693445989 L 535.478693458 644.62308693 L 344 541 A 0 0 0 0 1 344 541 L 515.811374117 674.726160184 L 491.457488368 701.181532386 L 344 541 A 0 0 0 0 1 344 541 L 463.081346729 723.267569947 L 431.456976374 740.381823336 L 344 541 A 0 0 0 0 1 344 541 L 397.447007686 752.057460334 L 361.979143955 757.976 L 344 541 A 0 0 0 0 1 344 541 L 326.020856045 757.976 L 290.552992314 752.057460334 L 344 541 A 0 0 0 0 1 344 541 L 256.543023626 740.381823336 L 224.918653271 723.267569947 L 344 541 A 0 0 0 0 1 344 541 L 196.542511632 701.181532386 L 172.188625883 674.726160184 L 344 541 A 0 0 0 0 1 344 541 L 152.521306542 644.62308693 L 138.07702681 611.693445989 L 344 541 A 0 0 0 0 1 344 541 L 129.249788985 576.835472126 L 126.280377105 541 L 344 541 A 0 0 0 0 1 344 541 L 129.249788985 505.164527874 L 138.07702681 470.306554011 L 344 541 A 0 0 0 0 1 344 541 L 152.521306542 437.37691307 L 172.188625883 407.273839816 L 344 541 A 0 0 0 0 1 344 541 L 196.542511632 380.818467614 L 224.918653271 358.732430053 L 344 541 A 0 0 0 0 1 344 541 L 256.543023626 341.618176664 L 290.552992314 329.942539666 L 344 541 A 0 0 0 0 1 344 541 Z M 344 541 A 0 0 0 0 0 344 541 A 0 0 0 0 0 344 541" style="fill: url(#gradient-0);" bx:shape="cog 344 541 0 0 216.976 0 19 1@d69ad844"/>
</svg>