<?xml version="1.0" encoding="utf-8"?>
<svg viewBox="0 0 500 500" xmlns="http://www.w3.org/2000/svg" xmlns:bx="https://boxy-svg.com">
  <defs>
    <radialGradient id="gradient-0" gradientUnits="userSpaceOnUse" cx="344" cy="541" r="217.72">
      <stop offset="0" style="stop-color: rgba(255, 255, 255, 0.298);"/>
      <stop offset="1" style="stop-color: rgba(255, 255, 255, 0);"/>
    </radialGradient>
  </defs>
  <path transform="matrix(0.838007, 0.000019, -0.000019, 0.838007, -38.263828, -203.368408)" d="M 330.349027158 324.024 L 357.650972842 324.024 L 344 541 A 0 0 0 0 1 344 541 L 384.73763453 327.445841135 L 411.181839385 334.235558927 L 344 541 A 0 0 0 0 1 344 541 L 436.566546501 344.286075469 L 460.491423882 357.438888113 L 344 541 A 0 0 0 0 1 344 541 L 482.57916192 373.486569144 L 502.481423792 392.176037049 L 344 541 A 0 0 0 0 1 344 541 L 519.884338937 413.212547752 L 534.51345299 436.264342913 L 344 541 A 0 0 0 0 1 344 541 L 546.138056082 460.967881953 L 554.574821278 486.933575304 L 344 541 A 0 0 0 0 1 344 541 L 559.690695751 513.751928469 L 561.404999104 541 L 344 541 A 0 0 0 0 1 344 541 L 559.690695751 568.248071531 L 554.574821278 595.066424696 L 344 541 A 0 0 0 0 1 344 541 L 546.138056082 621.032118047 L 534.51345299 645.735657087 L 344 541 A 0 0 0 0 1 344 541 L 519.884338937 668.787452248 L 502.481423792 689.823962951 L 344 541 A 0 0 0 0 1 344 541 L 482.57916192 708.513430856 L 460.491423882 724.561111887 L 344 541 A 0 0 0 0 1 344 541 L 436.566546501 737.713924531 L 411.181839385 747.764441073 L 344 541 A 0 0 0 0 1 344 541 L 384.73763453 754.554158865 L 357.650972842 757.976 L 344 541 A 0 0 0 0 1 344 541 L 330.349027158 757.976 L 303.26236547 754.554158865 L 344 541 A 0 0 0 0 1 344 541 L 276.818160615 747.764441073 L 251.433453499 737.713924531 L 344 541 A 0 0 0 0 1 344 541 L 227.508576118 724.561111887 L 205.42083808 708.513430856 L 344 541 A 0 0 0 0 1 344 541 L 185.518576208 689.823962951 L 168.115661063 668.787452248 L 344 541 A 0 0 0 0 1 344 541 L 153.48654701 645.735657087 L 141.861943918 621.032118047 L 344 541 A 0 0 0 0 1 344 541 L 133.425178722 595.066424696 L 128.309304249 568.248071531 L 344 541 A 0 0 0 0 1 344 541 L 126.595000896 541 L 128.309304249 513.751928469 L 344 541 A 0 0 0 0 1 344 541 L 133.425178722 486.933575304 L 141.861943918 460.967881953 L 344 541 A 0 0 0 0 1 344 541 L 153.48654701 436.264342913 L 168.115661063 413.212547752 L 344 541 A 0 0 0 0 1 344 541 L 185.518576208 392.176037049 L 205.42083808 373.486569144 L 344 541 A 0 0 0 0 1 344 541 L 227.508576118 357.438888113 L 251.433453499 344.286075469 L 344 541 A 0 0 0 0 1 344 541 L 276.818160615 334.235558927 L 303.26236547 327.445841135 L 344 541 A 0 0 0 0 1 344 541 Z M 344 541 A 0 0 0 0 0 344 541 A 0 0 0 0 0 344 541" style="fill: url(#gradient-0);" bx:shape="cog 344 541 0 0 216.976 0 25 1@4e21fb1f"/>
</svg>